<svg xmlns="http://www.w3.org/2000/svg" viewBox="0 0 185 27" width="186px" height="27px"><defs><style>.a{fill:#0d83dd;}</style></defs><title>97-percent</title><path class="a" d="M.62,9.62a4.44,4.44,0,0,1,.85-2.75A8.09,8.09,0,0,1,3.88,4.6,17.32,17.32,0,0,1,7.21,3a16.69,16.69,0,0,1,3.69-.89,12.51,12.51,0,0,1,3.37,0l.8.18.86.2.79.23a11.17,11.17,0,0,1,1.07.39q.55.23,1.22.55a1.16,1.16,0,0,1,.73,1,4.24,4.24,0,0,1-.4,1.9q-.47,1.15-1,2.26t-1.42,2.65Q16,13.06,15.59,14A41.4,41.4,0,0,0,14,18.11l-1.38,4A5.54,5.54,0,0,1,11.75,24a4.66,4.66,0,0,1-2.63.26,7.66,7.66,0,0,1-2.88-.59q-.44-.24.49-3.22t2.08-5.82L10,11.81l-.33.08-.82.19q-.62.14-1.23.23t-1.45.17a12.49,12.49,0,0,1-1.54,0,8.23,8.23,0,0,1-1.45-.2,4.28,4.28,0,0,1-1.27-.48A2.59,2.59,0,0,1,1,11,2.72,2.72,0,0,1,.62,9.62ZM7.16,9.2q.48.2,1.71-.48a17.36,17.36,0,0,0,2-1.16,9.86,9.86,0,0,0,1.32-1.06,10.43,10.43,0,0,0,.76-.84,3.24,3.24,0,0,0,.39-.58l.09-.21a6.72,6.72,0,0,0-1-.08,4.78,4.78,0,0,0-.87.08,5,5,0,0,0-.79.21,6.69,6.69,0,0,0-.73.31l-.69.37-.67.39-.24.15A4.38,4.38,0,0,0,7.17,7.89Q6.66,9,7.16,9.2ZM20.83,6a2,2,0,0,1,.67-1,2.78,2.78,0,0,1,1.16-.48,11,11,0,0,1,1.39-.18l1.7-.11a14.15,14.15,0,0,0,1.73-.2,17.36,17.36,0,0,0,2.29-.59q1.32-.42,2.35-.79a15.9,15.9,0,0,1,2.36-.63A9.82,9.82,0,0,1,37,1.9a4.51,4.51,0,0,1,.93.14,1.33,1.33,0,0,1,.58.29,1.16,1.16,0,0,1,.27.38.79.79,0,0,1,0,.5,4.4,4.4,0,0,1-.18.57,4.23,4.23,0,0,1-.36.66l-.45.69-.51.76-.51.76q-1.5,2.56-4.17,7.72a52,52,0,0,0-3.22,7,17.17,17.17,0,0,1-.7,2.07,1.24,1.24,0,0,1-.91.68,11.63,11.63,0,0,1-1.89.09,4.81,4.81,0,0,1-1.19-.12,1.15,1.15,0,0,1-.67-.42,1.39,1.39,0,0,1-.26-.64,2.71,2.71,0,0,1,.11-1q.16-.62.36-1.19t.57-1.51a0,0,0,0,0,0,0q.53-1.41,2-4.6T29.46,9l1.2-2.5-1,.33q-.64.19-2.23.54a17.28,17.28,0,0,1-2.66.41,9.89,9.89,0,0,1-2.2-.14,3,3,0,0,1-1.43-.61A.91.91,0,0,1,20.83,6Zm27.3,4.56c0-1.83-1.43-4.43-3.69-4.43a4.32,4.32,0,0,0-4.37,4.59c0,2.11,1.33,4.18,3.75,4.18a4.27,4.27,0,0,0,4.31-4.34ZM44.19,24.87a5,5,0,0,1-.4.65,2.92,2.92,0,0,0-.12.31c.16.62.22.77.93.77s1.77-1.74,2.7-3.41A136.64,136.64,0,0,0,54.58,6.95,6.52,6.52,0,0,0,55.07,5a.84.84,0,0,0-1-1c-1.12,0-1.86.28-2,1,0,0,0,.09,0,.12v.59C52,5.83,52,5.9,52,6a100.33,100.33,0,0,1-4.93,13c-.9,1.92-1.77,4-2.85,6Zm1.89-14.35a2.1,2.1,0,0,1-1.8,2.17c-1,0-1.83-.71-1.83-2.42A1.79,1.79,0,0,1,44,8.53a2,2,0,0,1,2.08,2Zm12.34,10a2.31,2.31,0,0,1-1.52,2c-.93,0-2.17-.09-2.17-2.32,0-1.24.84-2.17,1.58-2.17a2.35,2.35,0,0,1,2.11,2.45Zm-2,4.12c2.23-.16,4.06-1.15,4.06-4.22,0-2.45-1.64-4.56-3.75-4.56a4.33,4.33,0,0,0-4.49,4.5,4.09,4.09,0,0,0,4.19,4.28Z"/><path class="a" d="M63.46,10.08c1.57,0,2.25-1.69,2.25-3.11,0-1.13-.52-2.34-1.86-2.34-1.89,0-2.3,1.58-2.3,3.16a2.09,2.09,0,0,0,1.9,2.28ZM63.55,9c-.57,0-.85-.56-.85-1.32s.11-2,1.26-2c.57,0,.87.63.87,1.2,0,.88-.31,2.11-1.27,2.11ZM70.9,6a.88.88,0,0,0,.21-.55c0-.1,0-.14-.11-.14s-.6.17-.91.24a12.88,12.88,0,0,1-1.29.21c0-.29,0-.59,0-.87V4.08c0-1.58.41-2.53,1-2.53a1,1,0,0,1,.67.36.56.56,0,0,0,.35.21c.25,0,.42-.31.42-.62A.69.69,0,0,0,71,1a2,2,0,0,0-1.39-.5c-1.61,0-2,2.17-2,4.8v.45c-.41,0-.7-.1-.9-.13l-.2,0c-.15,0-.25,0-.25.45,0,.67.41.8.94.8h.48c.1,1.32.22,2.55.32,3s.18.74.62.74c.24,0,.39-.07.39-.36,0-.13-.11-1.71-.21-3.53A5.69,5.69,0,0,0,70.9,6Zm5.92,2.55c0,.71-1.25,1-1.83,1-.11,0-.21,0-.35,0s-.2.14-.2.29c0,.41.46.49.84.49.91,0,2.84-.56,2.84-1.74a1.2,1.2,0,0,0-.66-1c-.34-.21-1.72-.83-1.72-1.32,0-.88,2-.71,2-1.18a.64.64,0,0,0-.7-.67c-1.11.07-2.42.64-2.42,1.82v.07c.06,1.36,2.21,1.67,2.21,2.3Zm2.6.13c.14.78.32,1.26.57,1.41a1.3,1.3,0,0,0,.57.17c.42,0,.8-.62,1.12-1.27.1-.21.24-.48.41-.85.28-.63.73-1.43,1-1.43s.31.46.43,1.25A4.64,4.64,0,0,0,84,9.64a.75.75,0,0,0,.53.2c.32,0,.55-.46.74-.88.28-.62.56-1.23.91-1.88.08-.17.24-.39.32-.39s.15.25.17.59c0,.9.24,2.11,1,2.52a1.31,1.31,0,0,0,.53.14.46.46,0,0,0,.52-.48c0-.18-.21-.29-.32-.42a3.84,3.84,0,0,1-.57-2.41c0-.1,0-.2,0-1A.61.61,0,0,0,87.17,5a1,1,0,0,0-.76.5c-.36.53-1,1.64-1.25,2.21-.15.29-.27.5-.41.5s-.14-.27-.17-.57-.06-.35-.11-.67-.28-1.9-1-1.9c-.52,0-.87.34-1.23,1s-.56,1.26-.91,2c-.15.35-.41.78-.53.78-.32,0-.39-1.54-.39-1.82A6.08,6.08,0,0,1,80.8,5.6a2.07,2.07,0,0,0,.11-.42c0-.34-.42-.56-.83-.56-.62,0-.85,1-.85,2.07a8.75,8.75,0,0,0,.2,1.95ZM92.08,4.72c-1.68,0-2.31,1.55-2.31,3,0,1.15.59,2.16,1.69,2.16s1.78-1.23,2.28-2.37C93.8,9,94.26,10,94.8,10a.45.45,0,0,0,.45-.39.77.77,0,0,0-.08-.27,4.8,4.8,0,0,1-.32-1.3,18.26,18.26,0,0,1-.08-1.88c0-.5-.45-.5-.64-.5s-.46.36-.69,1S92.56,9,91.72,9,91,8.18,91,7.75c0-1,.43-2,1.27-2,.34,0,.41,0,.53.24s.17.24.21.24a.52.52,0,0,0,.42-.48.94.94,0,0,0-.13-.43,1.24,1.24,0,0,0-1.19-.62Zm6,4.82a7.64,7.64,0,0,1-.49-3c0-.24,0-.48,0-.71A31.87,31.87,0,0,1,98,1.4a.63.63,0,0,0,0-.17c0-.24-.41-.42-.77-.42-.63,0-.73.94-.77,1.69,0,.56-.1,1.6-.1,2.52A13.42,13.42,0,0,0,97,9.78a.85.85,0,0,0,.69.48c.28,0,.55-.11.56-.34a.72.72,0,0,0-.13-.38Zm3.14-.11a9.62,9.62,0,0,1-.41-2.94V6.35c0-.31,0-.59,0-.87a28.44,28.44,0,0,1,.35-3.89.63.63,0,0,0,0-.17c0-.21-.34-.42-.66-.42-.53,0-.74,1-.84,1.89a20.68,20.68,0,0,0-.1,2.18c0,1.53.06,5.1,1.16,5.1.28,0,.63-.14.63-.36a.7.7,0,0,0-.14-.38Zm5.54-4.94c0-.87.22-1.95.22-2.8,0-.62-.36-.91-.71-.91s-.49.45-.52.76c-.13,1.61-.13,2.46-.13,3.7,0,1.69,0,5,1,5,.24,0,.29-.1.29-.25,0-.53-.17-2.24-.18-3.37A3,3,0,0,1,108.42,6a.81.81,0,0,1,.81.88,3,3,0,0,1-1.89,2.58.35.35,0,0,0,0,.11c0,.22.06.36.32.36,1.54,0,2.79-1.72,2.79-3.11A1.62,1.62,0,0,0,108.67,5h-.07a3.69,3.69,0,0,0-1.85.69c0-.41,0-.8,0-1.2Zm8.47,2.8A3.34,3.34,0,0,0,116.31,10a.27.27,0,0,0,.2.06.46.46,0,0,0,.46-.43,1.47,1.47,0,0,0-.11-.32,4.79,4.79,0,0,1-.38-1.4,13.72,13.72,0,0,1-.08-1.82V5.7c0-.56-.5-.56-.74-.56s-.45.07-.55.84c-.53,1.54-1.13,2.87-1.74,2.87s-.74-.8-.74-1.39.17-1.29.17-2c0-.32-.08-.52-.31-.52a1.18,1.18,0,0,0-.32.06c-.71.18-.8.91-.8,1.61,0,.2,0,.52,0,.69.07,1,.32,2.74,1.65,2.74.9,0,1.55-.78,2.23-2.74Zm5.14,1.23c0,.71-1.25,1-1.83,1-.11,0-.21,0-.35,0s-.2.14-.2.29c0,.41.46.49.84.49.91,0,2.84-.56,2.84-1.74a1.2,1.2,0,0,0-.66-1c-.34-.21-1.72-.83-1.72-1.32,0-.88,2-.71,2-1.18a.64.64,0,0,0-.7-.67c-1.11.07-2.42.64-2.42,1.82v.07c.06,1.36,2.21,1.67,2.21,2.3Zm4.16-6.08a.79.79,0,0,0-.74-.67c-.38,0-.57.46-.57.73a.64.64,0,0,0,.57.69c.34,0,.74-.29.74-.59Zm-.46,4.1c0-.39,0-.56,0-.73s.06-.31.06-.45a2.09,2.09,0,0,0,0-.29c0-.28-.32-.36-.71-.36s-.63.67-.63,1.37c0,1.19.24,3.67,1,4a.94.94,0,0,0,.43.13.41.41,0,0,0,.45-.46.26.26,0,0,0-.06-.15,1.36,1.36,0,0,1-.22-.39,9.06,9.06,0,0,1-.27-2.65Zm5.74,1.36c.1.76.35,1.69.94,2a1.31,1.31,0,0,0,.53.14.45.45,0,0,0,.5-.46c0-.18-.21-.29-.32-.42a2.89,2.89,0,0,1-.43-1.06,14.9,14.9,0,0,0-.42-2c-.2-.59-.5-.83-.87-.83-1.3,0-2.24,2.18-2.65,3.15a3.47,3.47,0,0,1,0-.69,6,6,0,0,1,.14-1.37c.24-.71.27-.77.28-.81a.47.47,0,0,0,.06-.2.81.81,0,0,0-.78-.7c-.6,0-.87,1-.87,2.52,0,.67.07,2.41.6,2.74a.94.94,0,0,0,.38.15h.22a.39.39,0,0,0,.35-.39A2.68,2.68,0,0,1,127.6,9l.1-.24c.22-.5,1-2,1.48-2,.29,0,.55.45.66,1.19Zm5.46,1.62A1.37,1.37,0,0,1,134,8.59a4.78,4.78,0,0,0,2.07-1.64,2.4,2.4,0,0,0,.35-1.22,1.25,1.25,0,0,0-1.32-1.19,2.64,2.64,0,0,0-2.52,2.93c0,1.39.71,2.83,2.39,2.83,1.08,0,2.35-.74,2.35-1.46,0-.2-.07-.43-.28-.43s-.22.14-.36.31a1.83,1.83,0,0,1-1.43.81Zm.17-3.5a2.21,2.21,0,0,1-1.6,1.89c0-.14,0-.31,0-.48,0-.64.18-1.86,1.13-1.86a.47.47,0,0,1,.49.45Zm4.89,2.49c0,.71-1.25,1-1.83,1-.11,0-.21,0-.35,0s-.2.14-.2.29c0,.41.46.49.84.49.91,0,2.84-.56,2.84-1.74a1.2,1.2,0,0,0-.66-1c-.34-.21-1.72-.83-1.72-1.32,0-.88,2-.71,2-1.18a.64.64,0,0,0-.7-.67c-1.11.07-2.42.64-2.42,1.82v.07c.06,1.36,2.21,1.67,2.21,2.3Zm2.44.88c-.22,0-.31.11-.31.24a.7.7,0,0,0,.55.62,4.67,4.67,0,0,0,.7,0h.14c.87,0,2.35-.5,2.39-1.47V8.75c0-.67-.6-1-1.26-1.48-.46-.36-1-.7-1-1.15,0-.91,1.76-.55,1.86-1.08a2,2,0,0,0,0-.25c0-.28-.14-.39-.53-.42h-.17c-.88,0-2.35.46-2.42,1.67v.08c0,1.36,2.23,1.95,2.23,2.6s-.7.73-1.34.73c-.29,0-.52-.06-.71-.06Zm9.3.69c1.57,0,2.25-1.69,2.25-3.11,0-1.13-.52-2.34-1.86-2.34-1.89,0-2.3,1.58-2.3,3.16a2.09,2.09,0,0,0,1.9,2.28ZM152.17,9c-.57,0-.85-.56-.85-1.32s.11-2,1.26-2c.57,0,.87.63.87,1.2,0,.88-.31,2.11-1.27,2.11Zm3.21-2.88c0,.77.28,4,1.83,4,.76,0,1.36-1.09,1.6-1.62.06.14.78,1.58,1.51,1.58,1.79,0,1.93-3.05,1.93-4.28a1,1,0,0,0-1-1.12c-.27,0-.41.15-.41.43,0,.48.38,1,.38,1.75S161,9,160.46,9c-.35,0-1-1-1-1.37a1.08,1.08,0,0,1,0-.21c0-.14,0-.28,0-.45s0-.53-.42-.53-.63.39-.63.83a2.51,2.51,0,0,0,.1.67,2.94,2.94,0,0,1-.77,1,.57.57,0,0,1-.29.14c-.56,0-.76-1.88-.76-2.37a3.71,3.71,0,0,1,.13-.85,2.55,2.55,0,0,0,.06-.38c0-.36-.56-.55-.78-.55-.62,0-.66.63-.66,1.22Zm12,1.78c.1.76.35,1.69.94,2a1.31,1.31,0,0,0,.53.14.45.45,0,0,0,.5-.46c0-.18-.21-.29-.32-.42a2.89,2.89,0,0,1-.43-1.06,14.9,14.9,0,0,0-.42-2c-.2-.59-.5-.83-.87-.83-1.3,0-2.24,2.18-2.65,3.15a3.47,3.47,0,0,1,0-.69,6,6,0,0,1,.14-1.37c.24-.71.27-.77.28-.81a.47.47,0,0,0,.06-.2.81.81,0,0,0-.78-.7c-.6,0-.87,1-.87,2.52,0,.67.07,2.41.6,2.74a.94.94,0,0,0,.38.15h.22a.39.39,0,0,0,.35-.39,2.68,2.68,0,0,1,.14-.71l.1-.24c.22-.5,1-2,1.48-2,.29,0,.55.45.66,1.19Zm5.46,1.62a1.37,1.37,0,0,1-1.26-.94,4.78,4.78,0,0,0,2.07-1.64A2.4,2.4,0,0,0,174,5.73a1.25,1.25,0,0,0-1.32-1.19,2.64,2.64,0,0,0-2.52,2.93c0,1.39.71,2.83,2.39,2.83,1.08,0,2.35-.74,2.35-1.46,0-.2-.07-.43-.28-.43s-.22.14-.36.31a1.83,1.83,0,0,1-1.43.81ZM173,6a2.21,2.21,0,0,1-1.6,1.89c0-.14,0-.31,0-.48,0-.64.18-1.86,1.13-1.86A.47.47,0,0,1,173,6Zm5.81-.39a.6.6,0,0,1,.42.11l.13.1c.29,0,.45-.38.45-.69a.72.72,0,0,0-.77-.63,2.07,2.07,0,0,0-1.61,1,7.28,7.28,0,0,0-.53.83c-.15-1-.28-1.23-.78-1.23a.56.56,0,0,0-.49.32.62.62,0,0,0,0,.21,9.09,9.09,0,0,0,.14.91A12.9,12.9,0,0,1,176,9.45c0,.32,0,.63.36.63.52,0,.77-.22.77-1.11V8.59a4.45,4.45,0,0,1,.14-1.15c.21-.74.71-1.81,1.6-1.81Zm1.44,3.77c-.22,0-.31.11-.31.24a.7.7,0,0,0,.55.62,4.67,4.67,0,0,0,.7,0h.14c.87,0,2.35-.5,2.39-1.47V8.75c0-.67-.6-1-1.26-1.48-.46-.36-1-.7-1-1.15,0-.91,1.76-.55,1.86-1.08a2,2,0,0,0,0-.25c0-.28-.14-.39-.53-.42h-.17c-.88,0-2.35.46-2.42,1.67v.08c0,1.36,2.23,1.95,2.23,2.6s-.7.73-1.34.73c-.29,0-.52-.06-.71-.06ZM70.77,20.63a.6.6,0,0,1,.42.11l.13.1c.29,0,.45-.38.45-.69a.72.72,0,0,0-.77-.63,2.07,2.07,0,0,0-1.61,1,7.27,7.27,0,0,0-.53.83c-.15-1-.28-1.23-.78-1.23a.56.56,0,0,0-.49.32.62.62,0,0,0,0,.21,9.09,9.09,0,0,0,.14.91,12.9,12.9,0,0,1,.22,2.94c0,.32,0,.63.36.63.52,0,.77-.22.77-1.11v-.39a4.45,4.45,0,0,1,.14-1.15c.21-.74.71-1.81,1.6-1.81Zm3.68,3.71a1.21,1.21,0,0,1-1.16-.77c1.06-.77,2.1-1.78,2.1-2.91a1.11,1.11,0,0,0-1.2-1.15c-1.51,0-2.35,1.29-2.35,2.8,0,1.33.71,2.81,2.31,2.81.85,0,2.32-.5,2.32-1.44,0-.24-.13-.45-.35-.45a2.32,2.32,0,0,1-1.67,1.11Zm0-3.47a2.83,2.83,0,0,1-1.33,2.06,3.39,3.39,0,0,1,0-.55c0-.62.1-1.82,1-1.82a.32.32,0,0,1,.35.31Zm9.48,4.21c1.53,0,2.18-1.62,2.18-3v-.21c-.07-1.09-.64-2.21-1.93-2.21A2.18,2.18,0,0,0,82,22c-.46,1.13-1.09,2.3-2.24,2.3a1.69,1.69,0,0,1-1.46-1.85c0-.8.38-1.65,1.22-1.65s.53,1,1,1c.28,0,.49-.49.49-.78,0-.78-.81-1.2-1.62-1.2-1.51,0-2.35,1.19-2.35,2.72a2.5,2.5,0,0,0,2.41,2.67A3.18,3.18,0,0,0,82,23.22a1,1,0,0,0,.06.22,2,2,0,0,0,1.85,1.64ZM84,24a.83.83,0,0,1-.78-.69,3.45,3.45,0,0,1-.11-.91c0-.78.22-1.72,1.22-1.72.59,0,.87.63.9,1.2v.2c0,.85-.35,1.92-1.22,1.92Zm3.53-.36c.14.78.32,1.26.57,1.41a1.3,1.3,0,0,0,.57.17c.42,0,.8-.62,1.12-1.27.1-.21.24-.48.41-.85.28-.63.73-1.43,1-1.43s.31.46.43,1.25a4.64,4.64,0,0,0,.52,1.72.75.75,0,0,0,.53.2c.32,0,.55-.46.74-.88.28-.62.56-1.23.91-1.88.08-.17.24-.39.32-.39s.15.25.17.59c0,.9.24,2.11,1,2.52a1.31,1.31,0,0,0,.53.14.46.46,0,0,0,.52-.48c0-.18-.21-.29-.32-.42a3.84,3.84,0,0,1-.57-2.41c0-.1,0-.2,0-1a.61.61,0,0,0-.69-.64,1,1,0,0,0-.76.5c-.36.53-1,1.64-1.25,2.21-.15.29-.27.5-.41.5s-.14-.27-.17-.57-.06-.35-.11-.67-.28-1.9-1-1.9c-.52,0-.87.34-1.23,1s-.56,1.26-.91,2c-.15.35-.41.78-.53.78-.32,0-.39-1.54-.39-1.82a6.08,6.08,0,0,1,.34-1.51,2.07,2.07,0,0,0,.11-.42c0-.34-.42-.56-.83-.56-.62,0-.85,1-.85,2.07a8.75,8.75,0,0,0,.2,1.95Zm11.62-.91a6,6,0,0,1,.14-1.37c.24-.71.27-.77.28-.81a.47.47,0,0,0,.06-.2.81.81,0,0,0-.78-.7c-.6,0-.87,1-.87,2.52,0,.67.07,2.41.6,2.74a.77.77,0,0,0,.48.15l.2,0c.39,0,.9-.59,1.18-1.16.1-.21.24-.48.41-.85.28-.63.73-1.36,1-1.36s.31.46.43,1.25a4.64,4.64,0,0,0,.52,1.72.75.75,0,0,0,.53.2c.32,0,.55-.46.74-.88s.59-1.34.8-1.76.34-.63.52-.63.35.6.5,1.34.35,1.69.94,2a1.31,1.31,0,0,0,.53.14.45.45,0,0,0,.5-.46c0-.18-.21-.29-.32-.42A2.89,2.89,0,0,1,107,23.1a19.1,19.1,0,0,0-.56-2.62.81.81,0,0,0-.67-.38c-.5,0-1.05.29-2,2.62-.14.29-.18.5-.32.5s-.14-.27-.17-.57-.06-.35-.11-.67-.25-1.89-.91-1.89a1.09,1.09,0,0,0-.9.5A12.29,12.29,0,0,0,100,23a2.42,2.42,0,0,1-.59.84c-.22,0-.35-.45-.35-1.12Zm12.14,1.79a1.37,1.37,0,0,1-1.26-.94,4.78,4.78,0,0,0,2.07-1.64,2.4,2.4,0,0,0,.35-1.22,1.25,1.25,0,0,0-1.32-1.19,2.64,2.64,0,0,0-2.52,2.93c0,1.39.71,2.83,2.39,2.83,1.08,0,2.35-.74,2.35-1.46,0-.2-.07-.43-.28-.43s-.22.14-.36.31a1.83,1.83,0,0,1-1.43.81Zm.17-3.5a2.21,2.21,0,0,1-1.6,1.89c0-.14,0-.31,0-.48,0-.64.18-1.86,1.13-1.86a.47.47,0,0,1,.49.45ZM118,22.9c.1.76.35,1.69.94,2a1.31,1.31,0,0,0,.53.14.45.45,0,0,0,.5-.46c0-.18-.21-.29-.32-.42a2.89,2.89,0,0,1-.43-1.06,14.9,14.9,0,0,0-.42-2c-.2-.59-.5-.83-.87-.83-1.3,0-2.24,2.18-2.65,3.15a3.47,3.47,0,0,1,0-.69,6,6,0,0,1,.14-1.37c.24-.71.27-.77.28-.81a.47.47,0,0,0,.06-.2.81.81,0,0,0-.78-.7c-.6,0-.87,1-.87,2.52,0,.67.07,2.41.6,2.74a.94.94,0,0,0,.38.15h.22a.39.39,0,0,0,.35-.39,2.68,2.68,0,0,1,.14-.71l.1-.24c.22-.5,1-2,1.48-2,.29,0,.55.45.66,1.19Zm6.33-3.47c0,.32,0,.73,0,1.19a1.92,1.92,0,0,0-1.57-.7c-1.2,0-2.23,1.18-2.23,2.88A2,2,0,0,0,122.25,25c1.26,0,1.95-1,2.32-2.07.2,1.27.56,2.35,1.18,2.35a.43.43,0,0,0,.45-.45,1.76,1.76,0,0,0-.11-.29,11.46,11.46,0,0,1-.64-4.65v-.21a23.82,23.82,0,0,1,.36-3.46.63.63,0,0,0,0-.17c0-.24-.28-.39-.63-.39-.83,0-.87,2.28-.87,3.79Zm-1.81,4.65c-.43,0-.83-.5-.83-1.33,0-1.18.62-1.95,1.3-1.95a1.88,1.88,0,0,1,1.43.91.61.61,0,0,0,0,.07c-.27.74-1,2.3-1.92,2.3Zm16.56-3.23a.59.59,0,0,1,.42.15l.13.1c.29,0,.45-.38.45-.67a.71.71,0,0,0-.78-.64,2.61,2.61,0,0,0-2.17,1.85,1.9,1.9,0,0,0-1.93-1.55,9.46,9.46,0,0,0-2.76.63,25.7,25.7,0,0,1,.22-2.86.31.31,0,0,0,0-.13c0-.24-.31-.36-.69-.36-.8,0-.8,1.44-.8,2.11,0,.49,0,1.08,0,1.67l-.53.2c-.55.2-.66.36-.66,1.09,0,.08,0,.11.1.11a.93.93,0,0,0,.28-.08l.87-.49a27.47,27.47,0,0,0,.36,3.22c.08.25.18.46.34.46.36,0,.46-.32.46-.56,0-.43,0-.7,0-1V22.49c0-.32,0-.66,0-1v-.07a6.26,6.26,0,0,1,2.41-.62c.63,0,1,.18,1.2,1.48a16,16,0,0,1,.14,2.24v.1c0,.41,0,.67.34.67.52,0,.83-.22.83-1.11v-.39a4.45,4.45,0,0,1,.14-1.15c.21-.74.73-1.85,1.61-1.85ZM135.49,15a12.28,12.28,0,0,0-5.67,1.18.37.37,0,0,0-.21.34c0,.24.08.46.24.48a2,2,0,0,0,.69-.14,16.08,16.08,0,0,1,4-.59,11.33,11.33,0,0,1,2.91.28c.18,0,.32-.49.32-.83a.51.51,0,0,0-.39-.49,7,7,0,0,0-1.88-.22Zm7.57,9.53a1.37,1.37,0,0,1-1.26-.94,4.78,4.78,0,0,0,2.07-1.64,2.4,2.4,0,0,0,.35-1.22,1.25,1.25,0,0,0-1.32-1.19,2.64,2.64,0,0,0-2.52,2.93c0,1.39.71,2.83,2.39,2.83,1.08,0,2.35-.74,2.35-1.46,0-.2-.07-.43-.28-.43s-.22.14-.36.31a1.83,1.83,0,0,1-1.43.81Zm.17-3.5a2.21,2.21,0,0,1-1.6,1.89c0-.14,0-.31,0-.48,0-.64.18-1.86,1.13-1.86a.47.47,0,0,1,.49.45Zm4.89,2.49c0,.71-1.25,1-1.83,1-.11,0-.21,0-.35,0s-.2.14-.2.29c0,.41.46.49.84.49.91,0,2.84-.56,2.84-1.74a1.2,1.2,0,0,0-.66-1c-.34-.21-1.72-.83-1.72-1.32,0-.88,2-.71,2-1.18a.64.64,0,0,0-.7-.67c-1.11.07-2.42.64-2.42,1.82v.07c.06,1.36,2.21,1.67,2.21,2.3Zm7.56,1.69a.38.38,0,0,0,.17,0,.44.44,0,0,0,.46-.45,1.76,1.76,0,0,0-.11-.29,5.32,5.32,0,0,1-.27-.77,16.62,16.62,0,0,1-.24-1.88c-.07-.76-.28-1.71-1.16-1.71A1.92,1.92,0,0,0,153,21a14.53,14.53,0,0,0-1.16,2.52c0,.1-.07.18-.11.18s0,0-.06-.11c-.07-.49-.1-1.82-.1-2.42a34.57,34.57,0,0,1,.27-4,2.07,2.07,0,0,0,0-.29c0-.53-.21-.88-1-.88-.22,0-.31.71-.35,1.44s-.08,1.72-.08,2.62a19.17,19.17,0,0,0,.41,4.62.61.61,0,0,0,.49.5c.43,0,.73-.49.92-.87.84-1.67,1-2.23,1.27-2.58.14-.17.29-.35.42-.35a.49.49,0,0,1,.46.42l.24,1.46c.18.81.38,1.67,1,1.95Zm2.42-.43c-.35-.13-.31-.22-.53-.22s-.29.25-.29.52c0,.49.56.57,1,.57,2.39,0,5.78-.73,5.78-3.56,0-1.54-1.58-2-2.83-2h-.39a3.71,3.71,0,0,0,2.31-2.93c0-1.32-1.48-1.58-2.56-1.58a10.07,10.07,0,0,0-2.46.36c-1.37.35-1.65.78-1.71,1.18a.41.41,0,0,0,.25.42,5.5,5.5,0,0,1,1.41-.66,5.37,5.37,0,0,1,2.11-.32c.8,0,1.61.08,1.64,1a3.25,3.25,0,0,1-1.75,2.34,1.66,1.66,0,0,1-.63.24,13.64,13.64,0,0,1,.42-2.7c0-.15-.31-.29-.67-.29-.7,0-.85,1-.85,2.11,0,.27,0,.53,0,.8a23.7,23.7,0,0,0,.38,3.65c.1.45.31.9.71.9.25,0,.29-.08.29-.15a.31.31,0,0,0,0-.08c0-.25-.06-.69-.07-.83-.07-.66-.18-1.33-.21-1.95,0-.24,0-.46,0-.67a.59.59,0,0,0,.22.06c.18,0,.7-.17,1-.17,1.27,0,2.09.24,2.17,1.34,0,2.24-2.45,2.7-4.24,2.7a1.47,1.47,0,0,1-.48-.06Zm9,.31c1.57,0,2.25-1.69,2.25-3.11,0-1.13-.52-2.34-1.86-2.34-1.89,0-2.3,1.58-2.3,3.16a2.09,2.09,0,0,0,1.9,2.28Zm.08-1.08c-.57,0-.85-.56-.85-1.32s.11-2,1.26-2c.57,0,.87.63.87,1.2,0,.88-.31,2.11-1.27,2.11Zm5,1.09c1.46-.07,2.25-1.67,2.25-3,0-1.12-.55-2.35-1.92-2.35-1.64,0-2.3,1.33-2.3,2.86s.69,2.51,2,2.51Zm.13-1c-.59,0-.87-.52-.87-1.29s.1-2,1.16-2c.69,0,1,.55,1,1.13,0,.9-.25,2.18-1.25,2.18ZM177,17.19c0-.28.06-.38.06-.45,0-.41-.53-.64-.78-.64s-.41.22-.43.5a38.84,38.84,0,0,0-.18,3.95c0,1.34.08,2.44.18,3.67,0,.5.14,1.05.8,1.05.21,0,.28-.13.28-.49,0-.15-.07-.73-.14-1.37l.46-.55C178,24,179,25.13,180,25.13a.64.64,0,0,0,.66-.59.15.15,0,0,0-.1-.14,7.33,7.33,0,0,1-2.62-2.34,8.22,8.22,0,0,1,1.53-1.19c.39-.25.7-.25.7-.45,0-.55-.31-.78-.66-.78a1.41,1.41,0,0,0-.6.21,7.45,7.45,0,0,0-2.21,2.46c0-.2,0-.39,0-.57a28.2,28.2,0,0,1,.32-4.55Zm4.45,7.21c-.22,0-.31.11-.31.24a.7.7,0,0,0,.55.62,4.67,4.67,0,0,0,.7,0h.14c.87,0,2.35-.5,2.39-1.47v-.07c0-.67-.6-1-1.26-1.48-.46-.36-1-.7-1-1.15,0-.91,1.76-.55,1.86-1.08a2,2,0,0,0,0-.25c0-.28-.14-.39-.53-.42h-.17c-.88,0-2.35.46-2.42,1.67v.08c0,1.36,2.23,1.95,2.23,2.6s-.7.73-1.34.73c-.29,0-.52-.06-.71-.06Z"/></svg>
