<?xml version="1.0" encoding="UTF-8" standalone="no"?>
<svg width="393px" height="106px" viewBox="0 0 393 106" version="1.1" xmlns="http://www.w3.org/2000/svg" xmlns:xlink="http://www.w3.org/1999/xlink">
    <!-- Generator: Sketch 42 (36781) - http://www.bohemiancoding.com/sketch -->
    <title>Group 48</title>
    <desc>Created with Sketch.</desc>
    <defs>
        <path d="M71.5211671,53.2674561 C71.828518,51.1056137 71.9875139,48.8959611 71.9875139,46.6491328 C71.9875139,20.9164235 51.128181,0.0587764734 25.3996294,0.0587764734 C16.1324206,0.0587764734 7.49699936,2.76474125 0.240522285,7.42982275 L0.240522285,53.2674561 L71.5211671,53.2674561 L71.5211671,53.2674561 Z" id="path-1"></path>
        <polygon id="path-3" points="5.52511033 0.215103429 0.123169245 0.215103429 0.123169245 7.65978366 5.52511033 7.65978366 5.52511033 0.215103429"></polygon>
    </defs>
    <g id="Page-1" stroke="none" stroke-width="1" fill="none" fill-rule="evenodd">
        <g id="Index" transform="translate(-853.000000, -3832.000000)">
            <g id="Footer" transform="translate(160.000000, 3758.000000)">
                <g id="Blue-Section">
                    <g id="Group-14">
                        <g id="Group-48" transform="translate(693.000000, 74.000000)">
                            <g id="Page-1">
                                <path d="M77.8788224,16.4268857 C74.9895988,16.4268857 71.7139146,18.710244 68.7268451,20.9932945 C65.7394679,23.2766528 63.0403976,25.5597034 61.3037866,25.5597034 C60.9816335,25.5597034 60.6927111,25.4812322 60.4410195,25.3095187 C58.9404078,24.2841616 58.9677923,21.9626448 60.3727119,19.5066498 C46.8822838,27.6553462 37.8613831,42.4599397 37.8613831,59.3715621 C37.8613831,85.0768834 58.6970238,105.912066 84.396037,105.912066 C86.4194166,105.912066 88.4135655,105.782819 90.3689453,105.532327 C90.154792,104.832549 90.7664828,103.45084 90.2421764,101.956194 C89.1895636,98.949362 83.4781931,96.6980077 83.027425,94.1460009 C82.5794261,91.5866086 90.0950998,91.5866086 79.7268178,86.9269575 C69.3557666,82.2663832 65.7440832,79.4204941 64.0988566,74.6100552 C62.8607058,70.9902245 61.6936317,66.0385374 60.645019,66.0385374 C59.5893293,66.0385374 60.0400974,68.6367037 59.2453301,69.1983114 C58.9994846,69.3746408 58.7687159,69.4561893 58.5527164,69.4561893 C56.6899518,69.4561893 55.9582613,63.3779019 56.5708752,59.6402106 C57.1702583,55.9846832 59.1385611,52.2002169 60.340712,50.6421787 C62.3139379,48.0849405 63.7853189,46.8334017 60.9930181,40.774809 C58.2801017,34.8885452 58.3702554,31.2961025 62.294861,29.3687881 C63.1434743,28.9518137 64.0705489,28.6850116 65.0083928,28.6850116 C67.1890027,28.6853193 69.426228,30.1276509 70.8619167,34.4798795 C71.6622224,36.9054091 72.8265272,37.6547322 74.2237545,37.6547322 C75.354521,37.6547322 76.6382101,37.1635948 78.0049759,36.6724573 C79.3714341,36.1813199 80.8212767,35.6901825 82.2846576,35.6901825 C82.7369642,35.6901825 83.1911169,35.7372652 83.6440389,35.8458939 C88.4323347,36.992189 91.6603267,43.7567149 87.3895681,43.7567149 C87.330799,43.7567149 87.2704914,43.755484 87.2089531,43.7530221 C82.6695798,43.5628449 85.1384967,39.8916232 83.9323459,39.2903184 C83.8677306,39.257699 83.7929616,39.241697 83.7092695,39.241697 C82.8323486,39.241697 80.9831224,41.0111458 79.6046643,44.2690857 C77.7314382,48.6964005 79.229896,52.944924 81.1938911,52.944924 C82.1185042,52.944924 83.1465017,52.0032695 83.9741919,49.6959083 C84.2535758,48.9170431 84.4972675,47.8396795 84.73419,46.5093618 C84.9778817,45.1421164 85.6372647,44.5629681 86.60157,44.5629681 C88.811103,44.5629681 92.6209397,47.603035 96.6950835,51.1656278 C98.9209241,53.1070978 99.7581528,53.9241216 99.4196921,54.5805102 C99.319077,54.7753034 99.1350774,54.8583906 98.8886165,54.8583906 C98.1600029,54.8583906 96.8855445,54.131224 95.6095477,53.4102121 C94.4566275,52.759055 93.1480153,52.2599165 92.1286332,52.2599165 C91.4434042,52.2599165 90.888944,52.4854828 90.6003293,53.041859 C89.9880232,54.2229276 90.9080209,55.1445797 92.9504774,56.1197768 C95.5652401,57.3679306 94.0483208,58.2554245 91.2634046,61.1760921 C89.7286392,62.7855212 89.5883319,62.7965995 86.2932631,67.4005514 C85.3443424,68.726561 84.1911145,70.5289369 83.4163471,71.8078637 C83.0861941,72.3525462 82.7083489,72.5427235 82.3166576,72.5427235 C81.7409667,72.5427235 81.135122,72.1325191 80.6055849,71.8324822 C79.1446654,71.0049956 77.3194392,70.3633781 75.6825202,70.3633781 C73.5234486,70.3633781 71.6920685,71.4804388 71.4597614,74.7605353 C71.285608,77.2605356 71.7096069,77.9430813 72.4382205,77.9430813 C72.876681,77.9430813 73.425295,77.6956662 74.0200627,77.4482511 C74.6151382,77.200836 75.255752,76.9534209 75.8785197,76.9534209 C76.2720572,76.9534209 76.6585177,77.05251 77.0212861,77.312542 C79.6502026,79.1967742 76.1197498,80.5698665 81.8317357,84.8223905 C83.2366553,85.8683655 84.0824993,86.2754926 84.8360359,86.2754926 C85.7160338,86.2754926 86.4692627,85.7191164 87.8372593,84.9756402 C90.2920224,83.6403987 91.6621729,83.0978703 92.9944773,83.0978703 C94.3520124,83.0978703 95.6707783,83.6616321 98.0578493,84.5248154 C104.287372,86.7761697 105.566754,87.5316474 110.530126,87.8319921 C111.01751,87.8615342 111.481508,87.871997 111.920277,87.871997 C112.482737,87.871997 113.003966,87.8547642 113.479657,87.8372235 C113.955041,87.8196829 114.384886,87.80245 114.764885,87.80245 C116.724572,87.80245 117.358417,88.2665072 116.084882,91.5866086 C114.606116,95.4646249 108.099363,99.693146 101.613225,102.622738 C117.102418,96.4490539 128.498389,82.1916048 130.586692,65.0611862 C130.125462,65.6994187 129.537156,65.9772991 128.886081,65.9772991 C126.325779,65.9772991 122.799326,61.6776924 122.270712,58.1206387 C121.392253,52.2208348 121.96579,46.5438276 119.023336,46.2237881 C116.015343,45.8966709 115.912882,44.5635835 114.635654,41.5733689 C113.048581,37.8581419 110.702126,32.7276636 104.470757,29.5192682 C94.2535511,24.2607741 99.2138465,22.7578197 94.3569354,18.8293356 C92.8723237,17.6245717 91.5554039,17.2716052 90.2572533,17.2716052 C89.3384863,17.2716052 88.4289501,17.4485501 87.4763371,17.6254949 C86.5237241,17.8024398 85.5280342,17.9793847 84.4363446,17.9793847 C83.1203479,17.9793847 81.6649669,17.7221222 79.9778941,16.8980207 C79.3098958,16.5718266 78.6068206,16.4268857 77.8788224,16.4268857 M98.2969257,43.7496371 C97.6815426,43.7496371 96.9855443,43.6431624 96.2556999,43.4059024 C93.5713989,42.5344104 91.9806336,39.7808404 90.8997132,37.0989714 C89.3671016,33.2972722 84.082807,34.1219892 82.4597341,32.4987123 C80.8329689,30.8649725 83.8071154,29.0625966 86.4603396,28.5489948 C87.256953,28.394822 87.9920281,28.3086575 88.7111033,28.3086575 C90.7037137,28.3086575 92.5723245,28.9693543 95.279087,30.6714102 C100.228921,33.7837937 96.8276985,37.6581173 97.5433891,39.299858 C97.8261576,39.9491688 99.4526151,40.4821575 100.025229,41.0496121 C101.531687,42.5424114 100.369536,43.7496371 98.2969257,43.7496371" id="Fill-1" fill="#86C1EE"></path>
                                <g id="Group-10" transform="translate(56.307553, 12.709566)">
                                    <path d="M8.70077844,15.9755686 C7.76293461,15.9755686 6.83585998,16.2423707 5.9872467,16.6590374 C2.06294873,18.5866595 1.97279511,22.1787945 4.68540377,28.0650583 C7.47770455,34.123651 6.00632358,35.3751898 4.0330977,37.9327357 C2.83094683,39.4907738 0.862644016,43.2749325 0.263568578,46.9304598 C-0.349045289,50.6684589 0.382337514,56.7464386 2.24510213,56.7464386 C2.46110159,56.7464386 2.69187025,56.6648901 2.9377158,56.4888684 C3.73248306,55.9272607 3.28171494,53.3287867 4.33740464,53.3287867 C5.38601742,53.3287867 6.55309145,58.2807815 7.79124223,61.9006122 C9.43646892,66.7110511 13.0481523,69.5569402 23.4192035,74.2172068 C33.7877932,78.8771656 26.2718118,78.8771656 26.7198107,81.4365579 C27.1705788,83.9882569 32.8819493,86.239919 33.9345621,89.2467511 C34.4588685,90.741089 33.8474854,92.1227978 34.061331,92.8225763 C34.066254,92.8391937 34.0717925,92.8555034 34.0779463,92.8708899 C37.5302455,92.433913 40.8646987,91.6193511 44.038537,90.4693633 C44.4600744,90.2896488 44.8828426,90.1040875 45.3056108,89.9132947 C51.7917486,86.9833952 58.2985017,82.7548742 59.7772673,78.8771656 C61.0508026,75.5567565 60.416958,75.0926993 58.4575782,75.0926993 C58.0772715,75.0926993 57.6477341,75.1102399 57.1720429,75.1277805 C56.6963518,75.1450134 56.1751223,75.162554 55.6126622,75.162554 C55.1738941,75.162554 54.7098952,75.1520912 54.2225118,75.1225491 C49.2591395,74.8218967 47.979758,74.0667267 41.750235,71.8150646 C39.363164,70.9518813 38.044398,70.3884273 36.6868629,70.3884273 C35.3545585,70.3881196 33.9847158,70.9309557 31.5296449,72.2661971 C30.1616483,73.0096734 29.4084194,73.5660496 28.5284216,73.5660496 C27.7751927,73.5660496 26.929041,73.1586148 25.5241214,72.1129475 C19.8121355,67.8601157 23.3425883,66.4870235 20.7136717,64.6027913 C20.3509034,64.3427593 19.9644428,64.2439779 19.5709054,64.2439779 C18.9481377,64.2439779 18.3075239,64.491393 17.7127561,64.7388081 C17.1179884,64.9862232 16.5690666,65.2336383 16.1306062,65.2336383 C15.4019926,65.2336383 14.9779937,64.5510926 15.1524548,62.0510923 C15.3844542,58.7709958 17.2158343,57.653935 19.3749058,57.653935 C21.0118249,57.653935 22.8370511,58.2955526 24.2979706,59.1230391 C24.8275077,59.4230761 25.4336601,59.8332805 26.0090432,59.8332805 C26.4010423,59.8332805 26.7785798,59.6427955 27.1087328,59.098113 C27.8835001,57.8191862 29.036728,56.0168102 29.9856488,54.6911084 C33.2810252,50.0871565 33.4210249,50.0757705 34.9557903,48.4666491 C37.7407065,45.5459815 39.2579335,44.6584876 36.642863,43.410026 C34.6004066,42.4348289 33.6804088,41.5134846 34.292715,40.332416 C34.5813297,39.7760398 35.1357899,39.5501658 35.8210189,39.5501658 C36.840401,39.5501658 38.1490132,40.0496119 39.3019334,40.7007691 C40.5779302,41.421781 41.8523886,42.1489476 42.5810022,42.1489476 C42.8274631,42.1489476 43.0114627,42.0655527 43.1120778,41.8707594 C43.4505385,41.2146786 42.6133098,40.3976548 40.3874692,38.4561848 C36.3133254,34.893592 32.5034887,31.8535251 30.2939557,31.8535251 C29.3296504,31.8535251 28.6702674,32.4323656 28.4265757,33.7999188 C28.1896532,35.1299288 27.9459615,36.2072923 27.6665776,36.9861575 C26.8388873,39.2938265 25.8108899,40.2351733 24.8865845,40.2351733 C22.9222817,40.2351733 21.4238238,35.9869575 23.29705,31.5596427 C24.6755081,28.3017028 26.525042,26.5319463 27.4016552,26.5319463 C27.4853473,26.5319463 27.5601163,26.548256 27.6247315,26.5805676 C28.8308824,27.1821802 26.3619654,30.8530941 30.9016465,31.0432714 C30.9631848,31.046041 31.0231847,31.0472719 31.0819537,31.0472719 C35.3527124,31.0472719 32.1247204,24.282746 27.3364246,23.1361432 C26.8835026,23.0278222 26.4296576,22.9807394 25.9770433,22.9807394 C24.5136623,22.9807394 23.0641275,23.4718769 21.6973616,23.9630143 C20.3305958,24.4541518 19.0472143,24.9452892 17.9161402,24.9452892 C16.5189129,24.9452892 15.3546081,24.1956584 14.5546101,21.7704365 C13.1186136,17.4182079 10.8813884,15.9755686 8.70077844,15.9755686" id="Fill-3" fill="#E7F2FB"></path>
                                    <g id="Group-7" transform="translate(2.769224, 0.000000)">
                                        <mask id="mask-2" fill="white">
                                            <use xlink:href="#path-1"></use>
                                        </mask>
                                        <g id="Clip-6"></g>
                                        <path d="M25.3996294,0.0587457003 C16.5867281,0.0587457003 8.34644086,2.50520101 1.31876596,6.75741728 C1.31107367,6.77095741 1.30368908,6.78357435 1.29599679,6.79711448 C-0.108922807,9.25310942 -0.136307355,11.5746263 1.36430431,12.5999834 C1.6156883,12.7713891 1.90491836,12.850168 2.22676371,12.850168 C3.96368249,12.850168 6.66244503,10.5671175 9.64982224,8.28375921 C12.6371995,6.00070865 15.9128836,3.71735037 18.8021073,3.71735037 C19.5297978,3.71735037 20.2331806,3.86198358 20.901179,4.18848535 C22.5882517,5.01258689 24.0436327,5.26984936 25.3596295,5.26984936 C26.4513191,5.26984936 27.4470089,5.09290448 28.3996219,4.9159596 C29.352235,4.73901472 30.2617712,4.56206984 31.1805381,4.56206984 C32.4786888,4.56206984 33.7956086,4.91503641 35.2802203,6.11980025 C40.1371313,10.0482843 35.1768359,11.5512388 45.3940414,16.8097329 C51.6254105,20.0181282 53.9718663,25.1482988 55.5589393,28.8638336 C56.8361669,31.8540482 56.9386281,33.1871356 59.9466207,33.5142528 C62.8890749,33.8342922 62.3155379,39.5112995 63.1939973,45.4111034 C63.7226113,48.9681571 67.2490641,53.2674561 69.8093655,53.2674561 C70.4601331,53.2674561 71.048747,52.9898834 71.509669,52.3516509 C71.5656688,52.2744106 71.6195148,52.1916312 71.6718224,52.1036203 C71.8804373,50.3138613 71.9875139,48.494868 71.9875139,46.6491021 C71.9875139,20.9167005 51.128181,0.0587457003 25.3996294,0.0587457003" id="Fill-5" fill="#E7F2FB" mask="url(#mask-2)"></path>
                                    </g>
                                    <path d="M32.4035812,15.5991837 C31.6845061,15.5991837 30.949431,15.6853482 30.1528176,15.839521 C27.4995934,16.3531228 24.5254469,18.155191 26.1522121,19.7892385 C27.775285,21.4125154 33.0595796,20.5877984 34.5921912,24.3891899 C35.6731116,27.0710588 37.2638769,29.8249366 39.9481779,30.6964286 C40.6780223,30.9333809 41.3740206,31.0398556 41.9894036,31.0398556 C44.0620139,31.0398556 45.2241649,29.8326299 43.7177071,28.3401383 C43.1450931,27.7726838 41.5186356,27.2393873 41.2355594,26.5900765 C40.5201765,24.9483357 43.9213989,21.0743199 38.971565,17.9616287 C36.2648024,16.2598805 34.3961917,15.5991837 32.4035812,15.5991837" id="Fill-8" fill="#E7F2FB"></path>
                                </g>
                                <g id="Group-64" transform="translate(0.000000, 0.092627)">
                                    <path d="M56.950382,9.57979583 C56.9731511,9.52163482 56.9946895,9.52501985 56.9983818,9.58718136 L57.1094585,11.4501802 C57.1131508,11.5123417 57.165766,11.5757341 57.2263813,11.5911206 L58.373763,11.8816179 C58.4343783,11.8970044 58.4411475,11.9373171 58.3885322,11.9711674 L57.4448423,12.5826274 C57.392227,12.6164777 57.3546886,12.6949489 57.3608425,12.7571104 L57.5051498,14.1929797 C57.5113036,14.2551412 57.4876114,14.2637576 57.4525346,14.2120589 L56.6266905,12.9977555 C56.5916136,12.9463645 56.5319215,12.9448259 56.4940754,12.9943704 L55.6134622,14.1535902 C55.5756161,14.2031348 55.5503854,14.1932874 55.5574623,14.1311259 L55.7623849,12.3167485 C55.7694618,12.2548947 55.7411542,12.1662684 55.6993081,12.1198011 L55.0313098,11.3803254 C54.9894637,11.3341659 55.0057714,11.3030851 55.0676174,11.3113938 L56.1036148,11.4514111 C56.1654608,11.4597198 56.2346914,11.4190994 56.2574606,11.3609384 L56.950382,9.57979583 Z" id="Fill-11" fill="#EFC100"></path>
                                    <path d="M31.1642305,42.9054408 C31.1829997,42.8571271 31.2008458,42.8598967 31.2039227,42.9115954 L31.2962301,44.4560934 C31.2993071,44.5077921 31.3429993,44.5604139 31.393153,44.5730309 L32.3445352,44.8139836 C32.394689,44.8266006 32.4002274,44.8601432 32.3568429,44.8881466 L31.5740756,45.3949783 C31.5306911,45.4232895 31.4993066,45.4882206 31.5045373,45.5399192 L31.6242293,46.7302198 C31.6291524,46.7819184 31.6097678,46.7889962 31.5805371,46.7462217 L30.8959234,45.7393284 C30.8666927,45.6965539 30.8171544,45.695323 30.7860776,45.7365589 L30.0556178,46.6976004 C30.0242333,46.7388362 30.003618,46.7305275 30.0094641,46.6791365 L30.1793098,45.1746435 C30.185156,45.1232525 30.1614637,45.049705 30.1270023,45.0115464 L29.5731575,44.3982401 C29.5383883,44.3600816 29.5519268,44.3342322 29.6033113,44.3410023 L30.4623861,44.4573243 C30.5134629,44.4640944 30.5706935,44.430244 30.5894627,44.3822381 L31.1642305,42.9054408 Z" id="Fill-13" fill="#EFC100"></path>
                                    <path d="M28.5794369,33.9443366 C28.6018984,33.8870987 28.6231291,33.890176 28.6268214,33.9517221 L28.7363596,35.7891793 C28.7400519,35.8507253 28.7920517,35.9131945 28.8517439,35.9282733 L29.9837411,36.2150779 C30.0434332,36.2301567 30.0498948,36.2698539 29.9982026,36.3033965 L29.067128,36.90624 C29.0154358,36.9397826 28.9782051,37.0173306 28.9843589,37.0785689 L29.1265124,38.4950512 C29.1326663,38.5562895 29.1092817,38.5645982 29.0748203,38.5138227 L28.260053,37.3161367 C28.2255916,37.2650534 28.1668225,37.2635148 28.1292841,37.3124439 L27.2606709,38.4559694 C27.2234402,38.5048985 27.1985172,38.4950512 27.2052864,38.4338128 L27.4077475,36.6443616 C27.4145167,36.5831233 27.3865168,36.4957279 27.3452861,36.4498761 L26.6865185,35.7205554 C26.6452878,35.6747036 26.6612878,35.6442383 26.7222107,35.652547 L27.744362,35.7907179 C27.8052849,35.7987189 27.8735925,35.758714 27.8957463,35.7011684 L28.5794369,33.9443366 Z" id="Fill-15" fill="#EFC100"></path>
                                    <path d="M25.4966445,45.8442337 C25.5323367,45.7522223 25.5664905,45.7574537 25.5723366,45.8562351 L25.7483362,48.8018289 C25.7541823,48.9006103 25.8372591,49.0009303 25.9329511,49.025241 L27.7477159,49.4843745 C27.8434079,49.5086852 27.8538694,49.5723854 27.7711004,49.6262382 L26.2784887,50.5928188 C26.1957197,50.6466716 26.1360275,50.7709946 26.1458737,50.8691605 L26.3738731,53.1399019 C26.3837192,53.2380678 26.3464886,53.251608 26.2907964,53.1700594 L24.9846458,51.2498228 C24.9292613,51.1682743 24.8348,51.1655047 24.7751078,51.2442837 L23.3821882,53.0774326 C23.3224961,53.1559039 23.2828038,53.1399019 23.2938807,53.0417359 L23.6181876,50.172767 C23.6292645,50.0746011 23.5840339,49.9345838 23.5178802,49.861344 L22.4615751,48.6919692 C22.3954214,48.6187294 22.4215752,48.5694926 22.5191134,48.582725 L24.1575709,48.8042907 C24.2554168,48.8175231 24.364955,48.7528998 24.4006472,48.6608884 L25.4966445,45.8442337 Z" id="Fill-17" fill="#EFC100"></path>
                                    <path d="M22.949297,36.5937092 C22.9849892,36.5016978 23.019143,36.5069292 23.0249891,36.6057107 L23.2009887,39.5513044 C23.2068348,39.6500858 23.2899115,39.7504058 23.3856036,39.7747165 L25.2003683,40.23385 C25.2960604,40.2581607 25.3065219,40.3218609 25.2237529,40.3757137 L23.7311412,41.3422943 C23.6483722,41.3961471 23.58868,41.5204701 23.5985261,41.618636 L23.8265256,43.8893774 C23.8363717,43.9875433 23.799141,44.0010835 23.7434489,43.919535 L22.4372982,41.9992983 C22.3819138,41.9177498 22.2874525,41.9149803 22.2277603,41.9937592 L20.8348407,43.8269082 C20.7751485,43.9053794 20.7354563,43.8893774 20.7465332,43.7912115 L21.0708401,40.9222425 C21.081917,40.8240766 21.0366863,40.6840594 20.9705327,40.6108196 L19.9142276,39.4414447 C19.8480739,39.3682049 19.8742277,39.3189681 19.9717659,39.3322005 L21.6102234,39.5537662 C21.7080693,39.5669986 21.8176075,39.5023753 21.8532997,39.4103639 L22.949297,36.5937092 Z" id="Fill-19" fill="#EFC100"></path>
                                    <path d="M18.121832,19.5072345 C18.146755,19.4352256 18.1732165,19.4383029 18.1806011,19.5140046 L18.4039852,21.7795145 C18.4113698,21.8552161 18.4784465,21.9299946 18.5529079,21.9459966 L19.9655198,22.2460335 C20.0399811,22.2617278 20.0498272,22.3106569 19.9876735,22.3543546 L18.8661379,23.1439903 C18.8036765,23.1879957 18.7615227,23.2855462 18.7719843,23.3609401 L19.0153683,25.1042319 C19.0258298,25.1796258 18.9975222,25.1913195 18.9522915,25.1300812 L17.8882941,23.6889806 C17.8430635,23.6277422 17.7704483,23.6286654 17.7267561,23.6908269 L16.7076817,25.14516 C16.6639895,25.2076292 16.6329126,25.1965509 16.6384511,25.1205416 L16.8030661,22.8993448 C16.8086045,22.8236432 16.7695277,22.7168608 16.7166047,22.6623925 L15.8673761,21.7924392 C15.8144531,21.7379709 15.8329146,21.6995046 15.9086067,21.7065824 L17.178142,21.8284436 C17.2538342,21.8358291 17.3362955,21.7828995 17.3609108,21.7108907 L18.121832,19.5072345 Z" id="Fill-21" fill="#EFC100"></path>
                                    <path d="M9.41409975,15.5423459 C9.44640736,15.4491037 9.48056112,15.4531042 9.49040725,15.5512701 L9.779945,18.4879397 C9.78948343,18.5864133 9.87656014,18.6833484 9.97317529,18.7039663 L11.8042477,19.0929373 C11.9008628,19.1132475 11.9137859,19.1766399 11.8331707,19.23357 L10.3787127,20.2573885 C10.2980976,20.3140108 10.2433285,20.440488 10.2568669,20.5383462 L10.5725584,22.7986247 C10.5860968,22.8964829 10.5494816,22.911254 10.4907125,22.8318596 L9.11133127,20.9636293 C9.05286988,20.8842349 8.95840857,20.8854659 8.90179333,20.9660912 L7.58087352,22.851862 C7.52425828,22.9324873 7.48364299,22.9183317 7.49102759,22.8198581 L7.70425783,19.9401186 C7.71164243,19.8416449 7.66118102,19.7034741 7.59225811,19.6326961 L6.49133776,18.5051726 C6.42241485,18.4343946 6.4464148,18.3845423 6.54487609,18.3937742 L8.19041047,18.5519476 C8.28887177,18.5611795 8.39564073,18.4925556 8.42764066,18.3993134 L9.41409975,15.5423459 Z" id="Fill-23" fill="#EFC100"></path>
                                    <path d="M19.7950894,7.04945327 C19.819397,6.95374917 19.8538585,6.95498009 19.8717046,7.05222284 L20.4024725,9.95504207 C20.4203186,10.0519771 20.5147799,10.1418343 20.6126258,10.1541435 L22.469852,10.3907881 C22.5676979,10.403405 22.5858517,10.4652588 22.5101596,10.5286512 L21.1452399,11.6687917 C21.0692401,11.7321841 21.0249325,11.8626617 21.0467786,11.9589813 L21.5477005,14.1854095 C21.5692389,14.2817291 21.5338543,14.2998851 21.4689314,14.2254144 L19.9403198,12.477199 C19.8750892,12.403036 19.7812433,12.4119602 19.7313973,12.4972015 L18.5704771,14.4851387 C18.520631,14.57038 18.4790927,14.5593017 18.4781696,14.4605203 L18.4535543,11.5733953 C18.4526312,11.4746139 18.3907852,11.3407513 18.3163238,11.2761279 L17.1264806,10.2430776 C17.0520193,10.1784542 17.0717115,10.1264478 17.1704805,10.1276787 L18.8237072,10.1495276 C18.9224762,10.1507585 19.0230913,10.0735182 19.047399,9.97812184 L19.7950894,7.04945327 Z" id="Fill-25" fill="#EFC100"></path>
                                    <g id="Group-29" transform="translate(56.615244, 0.000000)">
                                        <mask id="mask-4" fill="white">
                                            <use xlink:href="#path-3"></use>
                                        </mask>
                                        <g id="Clip-28"></g>
                                        <path d="M3.19482285,0.280649967 C3.23051507,0.188638629 3.26466883,0.193870043 3.27051497,0.292651446 L3.44651454,3.23824518 C3.45236068,3.33671885 3.53543739,3.43734664 3.63112946,3.46165732 L5.4458942,3.92079082 C5.54158627,3.94510151 5.55204778,4.00880167 5.46927876,4.06265446 L3.97666707,5.0292351 C3.89389804,5.08308789 3.83420588,5.2074109 3.84405201,5.30557684 L4.07205145,7.57631819 C4.08189758,7.67448413 4.04435921,7.68802426 3.98897473,7.60647575 L2.68282412,5.68623913 C2.62743964,5.60469062 2.53297834,5.60192105 2.47328618,5.68069999 L1.08036655,7.51384895 C1.02067439,7.59232016 0.980982185,7.57631819 0.99205908,7.47815225 L1.31636597,4.60918334 C1.32744286,4.5110174 1.28221221,4.37100014 1.21605853,4.29745262 L0.15975345,3.12838549 C0.0935997681,3.05514569 0.119753549,3.00590886 0.217291769,3.01914126 L1.85574925,3.24070702 C1.95359516,3.25363169 2.06313335,3.18931607 2.09882557,3.09730473 L3.19482285,0.280649967 Z" id="Fill-27" fill="#EFC100" mask="url(#mask-4)"></path>
                                    </g>
                                    <path d="M150.032921,38.5717068 C150.057228,38.5095452 150.080305,38.513238 150.084305,38.5797077 L150.203074,40.572261 C150.207074,40.6387307 150.263382,40.7067391 150.327997,40.7230488 L151.555686,41.0338563 C151.620301,41.050166 151.627378,41.0932482 151.571378,41.1295604 L150.561842,41.7834871 C150.505535,41.8197993 150.465227,41.9038097 150.471996,41.9702794 L150.62615,43.5061609 C150.632919,43.5726307 150.607688,43.5818626 150.57015,43.5264711 L149.686768,42.2278496 C149.649229,42.1724581 149.585229,42.1709195 149.544922,42.2241568 L148.60277,43.4640019 C148.562463,43.5169315 148.535386,43.5061609 148.543078,43.4399989 L148.762462,41.4994521 C148.769847,41.4329824 148.739385,41.3382015 148.69477,41.2886569 L147.98031,40.4977902 C147.935387,40.4482457 147.952926,40.4150108 148.019079,40.423935 L149.127384,40.5737996 C149.193538,40.5827238 149.267384,40.5390261 149.291692,40.4768646 L150.032921,38.5717068 Z" id="Fill-30" fill="#EFC100"></path>
                                    <path d="M142.849246,43.918304 C142.884938,43.8262927 142.919092,43.8315241 142.924938,43.9303055 L143.100938,46.8758992 C143.106784,46.9746807 143.189861,47.0750007 143.285553,47.0993114 L145.100317,47.5584449 C145.196009,47.5827556 145.206471,47.6464557 145.123702,47.7003085 L143.63109,48.6668892 C143.548321,48.720742 143.488629,48.845065 143.498475,48.9432309 L143.726475,51.2139723 C143.736321,51.3121382 143.69909,51.3256783 143.643398,51.2441298 L142.337247,49.3238932 C142.281863,49.2423447 142.187402,49.2395751 142.127709,49.3183541 L140.73479,51.151503 C140.675098,51.2299742 140.635405,51.2139723 140.646482,51.1158063 L140.970789,48.2468374 C140.981866,48.1486715 140.936635,48.0086542 140.870482,47.9354144 L139.814177,46.7660396 C139.748023,46.6927998 139.774177,46.6435629 139.871715,46.6567953 L141.510172,46.8783611 C141.608018,46.8915935 141.717557,46.8269701 141.753249,46.7349588 L142.849246,43.918304 Z" id="Fill-32" fill="#EFC100"></path>
                                    <path d="M150.241505,47.6123592 C150.265812,47.5495823 150.289197,47.553275 150.293197,47.6203602 L150.413197,49.6289154 C150.417197,49.6960006 150.473812,49.7646244 150.539042,49.7809341 L151.77627,50.0942035 C151.841501,50.1108209 151.848578,50.1542109 151.79227,50.1908308 L150.774426,50.8499889 C150.718119,50.8866088 150.677196,50.9712347 150.683965,51.0383198 L150.839657,52.5865106 C150.846426,52.6532881 150.820888,52.66252 150.783042,52.6068208 L149.892582,51.2977364 C149.854736,51.2420373 149.790429,51.2404986 149.749506,51.2940437 L148.79997,52.5437361 C148.759047,52.5972812 148.73197,52.5865106 148.739662,52.5197332 L148.960892,50.5634921 C148.968277,50.4967146 148.937508,50.4010105 148.892585,50.3511582 L148.172279,49.5538292 C148.127356,49.5039769 148.144894,49.4704343 148.211664,49.4793585 L149.328584,49.6304541 C149.395353,49.6393782 149.469814,49.5953728 149.494122,49.5325958 L150.241505,47.6123592 Z" id="Fill-34" fill="#EFC100"></path>
                                    <path d="M152.409315,10.6049375 C152.445007,10.5129262 152.479161,10.5181576 152.485007,10.616939 L152.661006,13.5625327 C152.666852,13.6610064 152.749929,13.7616342 152.845621,13.7859449 L154.660386,14.2450784 C154.756078,14.2693891 154.76654,14.3330892 154.683771,14.386942 L153.191159,15.3535227 C153.10839,15.4073755 153.048698,15.5316985 153.058544,15.6298644 L153.286543,17.9006058 C153.296389,17.9987717 153.259159,18.0123118 153.203467,17.9307633 L151.897316,16.0105267 C151.841931,15.9289782 151.74747,15.9262086 151.687778,16.0049876 L150.294858,17.8381365 C150.235166,17.9166077 150.195474,17.9006058 150.206551,17.8024398 L150.530858,14.9334709 C150.541935,14.835305 150.496704,14.6952877 150.43055,14.6217402 L149.374245,13.4526731 C149.308092,13.3794333 149.334245,13.3301964 149.431784,13.3434288 L151.070241,13.5649946 C151.168087,13.5779193 151.277625,13.5136036 151.313317,13.4215923 L152.409315,10.6049375 Z" id="Fill-36" fill="#EFC100"></path>
                                    <path d="M159.229482,18.0526245 C159.266098,17.9110686 159.317174,17.912915 159.343021,18.0569327 L160.11348,22.3614631 C160.139326,22.5054809 160.279018,22.6387281 160.423941,22.6578073 L163.174396,23.0187749 C163.319318,23.0375464 163.346088,23.1295578 163.233472,23.2231078 L161.204554,24.9048535 C161.091939,24.9984034 161.025786,25.191658 161.05717,25.3344449 L161.787014,28.6363902 C161.818707,28.779177 161.766091,28.8056418 161.670092,28.6951667 L159.414713,26.0963849 C159.318713,25.9859097 159.179636,25.9985267 159.105483,26.1243883 L157.373795,29.0641352 C157.299641,29.1899969 157.23841,29.1733794 157.237487,29.0272076 L157.216564,24.7485265 C157.215949,24.6023546 157.12518,24.4038686 157.015026,24.3075491 L155.2578,22.7701289 C155.147646,22.6738093 155.177185,22.5971845 155.323646,22.5996463 L157.772871,22.6408822 C157.919332,22.643344 158.06887,22.5294838 158.105793,22.3879279 L159.229482,18.0526245 Z" id="Fill-38" fill="#EFC100"></path>
                                    <path d="M163.930117,10.1271864 C163.955348,10.0619476 163.979655,10.065948 163.983655,10.1354951 L164.10827,12.2200596 C164.11227,12.2896067 164.171347,12.3606923 164.239039,12.3779252 L165.523036,12.7028884 C165.590728,12.7201213 165.598113,12.7650499 165.539651,12.8032084 L164.483346,13.4872927 C164.424577,13.5251435 164.382423,13.6131544 164.3895,13.6827014 L164.550731,15.2893609 C164.557808,15.3589079 164.531346,15.3684476 164.491962,15.3105943 L163.567964,13.9519654 C163.528579,13.8941121 163.46181,13.8925734 163.419657,13.9479649 L162.434121,15.2450478 C162.391659,15.3007469 162.363659,15.2893609 162.371351,15.2201216 L162.600889,13.1900253 C162.608889,13.1204783 162.576889,13.0213891 162.53012,12.9693827 L161.782738,12.1422039 C161.735968,12.0901975 161.754122,12.055424 161.823353,12.0649636 L162.982735,12.2215983 C163.051965,12.2308302 163.129196,12.1852861 163.154426,12.120355 L163.930117,10.1271864 Z" id="Fill-40" fill="#EFC100"></path>
                                    <path d="M48.7486177,4.73963018 C48.777233,4.61838447 48.8209252,4.61930766 48.8452328,4.74116883 L49.5790771,8.38961841 C49.6036925,8.51178731 49.7249229,8.62257019 49.8486149,8.63611032 L52.1953784,8.89306506 C52.3190704,8.90660519 52.343378,8.98446094 52.2492244,9.06600945 L50.5535363,10.5338826 C50.4596903,10.6154311 50.4067674,10.78099 50.4359981,10.901928 L51.1172272,13.6982726 C51.1467656,13.8192105 51.102458,13.842598 51.0187659,13.750279 L49.0526169,11.5801654 C48.9689248,11.4878463 48.8507713,11.5010787 48.7898483,11.6097075 L47.3698519,14.1423273 C47.3092366,14.250956 47.2566214,14.2377236 47.2532368,14.1134006 L47.1578524,10.4735675 C47.1544678,10.3489368 47.0738526,10.1818392 46.9784682,10.1018294 L45.4550874,8.82567214 C45.359703,8.74597001 45.3833952,8.68011574 45.5080103,8.67950028 L47.5929282,8.66996064 C47.7172356,8.66934518 47.8424661,8.56994832 47.8713891,8.44870261 L48.7486177,4.73963018 Z" id="Fill-42" fill="#EFC100"></path>
                                    <path d="M114.777531,8.73919994 C114.803069,8.67365341 114.827377,8.67734617 114.831685,8.74781639 L114.956915,10.847152 C114.961223,10.9176222 115.0203,10.9890156 115.088607,11.0062485 L116.382142,11.3336735 C116.450142,11.3509064 116.457834,11.3964505 116.398758,11.434609 L115.33476,12.123617 C115.275684,12.1620833 115.233222,12.2507096 115.240299,12.3205643 L115.40276,13.9389176 C115.409837,14.0090801 115.383068,14.0186197 115.343683,13.9604587 L114.412609,12.5919824 C114.373224,12.5338214 114.30584,12.531975 114.263378,12.5879819 L113.270458,13.8946044 C113.227996,13.9506113 113.199689,13.9392253 113.207381,13.8693706 L113.438765,11.8241955 C113.446457,11.7543407 113.414457,11.6543284 113.367381,11.602322 L112.614459,10.7686808 C112.567383,10.7166744 112.585844,10.6815931 112.655382,10.6911328 L113.823072,10.8486907 C113.892918,10.8582303 113.970764,10.8123785 113.996302,10.7468319 L114.777531,8.73919994 Z" id="Fill-44" fill="#EFC100"></path>
                                    <path d="M124.780675,5.43765466 C124.816368,5.34564332 124.850521,5.35087473 124.856368,5.44965614 L125.032367,8.39524987 C125.038213,8.49403127 125.12129,8.59435133 125.216982,8.61866201 L127.031747,9.07779551 C127.127439,9.1021062 127.1379,9.16580636 127.055131,9.21965915 L125.56252,10.1862398 C125.479751,10.2400926 125.420058,10.3644156 125.429905,10.4625815 L125.657904,12.7333229 C125.66775,12.8314888 125.630519,12.845029 125.574827,12.7634804 L124.268677,10.8432438 C124.213292,10.7616953 124.118831,10.7589257 124.059139,10.8377047 L122.666219,12.6708536 C122.606527,12.7493249 122.566835,12.7333229 122.577912,12.6351569 L122.902219,9.76618803 C122.913295,9.66802209 122.868065,9.52800484 122.801911,9.45476504 L121.745606,8.28539018 C121.679452,8.21215038 121.705606,8.16291355 121.803144,8.17614595 L123.441602,8.39771171 C123.539448,8.41094411 123.648986,8.34632076 123.684678,8.25430943 L124.780675,5.43765466 Z" id="Fill-46" fill="#EFC100"></path>
                                    <path d="M129.177188,13.1530669 C129.23288,13.0102801 129.285803,13.0185888 129.295033,13.1715307 L129.568264,17.7471715 C129.577187,17.9001134 129.706417,18.0561326 129.855032,18.0939834 L132.673794,18.8073021 C132.822409,18.8451529 132.838717,18.9439343 132.710102,19.0273292 L130.391646,20.5290527 C130.263031,20.6124476 130.170108,20.8053945 130.185493,20.9580287 L130.539646,24.4852325 C130.55503,24.637559 130.496877,24.6587924 130.410723,24.5320075 L128.382113,21.5491784 C128.295651,21.4223936 128.14919,21.4187008 128.056575,21.5408697 L125.892888,24.3879898 C125.799965,24.5101587 125.738427,24.4852325 125.755658,24.3329061 L126.259349,19.8763569 C126.276579,19.7240304 126.206426,19.5061574 126.103657,19.392605 L124.463045,17.5760735 C124.360276,17.462521 124.400584,17.3862039 124.552584,17.4065141 L127.0975,17.7505565 C127.249192,17.7711744 127.419038,17.6711621 127.47473,17.5280675 L129.177188,13.1530669 Z" id="Fill-48" fill="#EFC100"></path>
                                    <path d="M137.351106,30.1531002 C137.376644,30.0875536 137.400952,30.0912464 137.40526,30.1617166 L137.53049,32.2610522 C137.534798,32.3315224 137.593874,32.4029158 137.662182,32.4201487 L138.955717,32.7475737 C139.023717,32.7648066 139.031409,32.8103507 138.972333,32.8485092 L137.908335,33.5375172 C137.849258,33.5759835 137.806797,33.6646098 137.813874,33.7344645 L137.976335,35.3528178 C137.983412,35.4229803 137.956643,35.4325199 137.917258,35.3743589 L136.986184,34.0058826 C136.946799,33.9477216 136.879415,33.9458752 136.836953,34.0018821 L135.844033,35.3085047 C135.801571,35.3645116 135.773264,35.3531255 135.780956,35.2832708 L136.01234,33.2380957 C136.020032,33.1682409 135.988032,33.0682286 135.940955,33.0162222 L135.188034,32.182581 C135.140957,32.1305746 135.159419,32.0954934 135.228957,32.105033 L136.396647,32.2625909 C136.466493,32.2721305 136.544339,32.2262787 136.569877,32.1607322 L137.351106,30.1531002 Z" id="Fill-50" fill="#EFC100"></path>
                                    <path d="M2.18922534,42.7816717 C2.21476374,42.7161251 2.23907137,42.7198179 2.24337906,42.7902881 L2.36860952,44.8896237 C2.3729172,44.9600939 2.43199397,45.0314874 2.5003015,45.0487203 L3.79383675,45.3761452 C3.86183658,45.3933781 3.86952887,45.4389222 3.8104521,45.4770807 L2.74645473,46.1660887 C2.68737796,46.204555 2.64491652,46.2931813 2.65199343,46.3630361 L2.81445456,47.9813893 C2.82153147,48.0515518 2.79476231,48.0610914 2.75537779,48.0029304 L1.82430317,46.6344541 C1.78491865,46.5762931 1.71753421,46.5744467 1.67507277,46.6304536 L0.682152156,47.9370762 C0.639690723,47.9930831 0.6113831,47.981697 0.619075389,47.9118423 L0.850459431,45.8666672 C0.85815172,45.7968124 0.826151799,45.6968001 0.779074993,45.6447937 L0.0261537813,44.8111525 C-0.0209230251,44.7591461 -0.00246153236,44.7240649 0.0670767569,44.7336045 L1.23476617,44.8911624 C1.30461215,44.900702 1.38245811,44.8548502 1.40799651,44.7893037 L2.18922534,42.7816717 Z" id="Fill-52" fill="#EFC100"></path>
                                    <path d="M32.330166,26.3001639 C31.7744751,24.663039 33.3658558,23.9647992 35.3883123,23.278253 C37.4104611,22.5917069 39.098457,22.1762711 39.6538402,23.8137036 C40.2095311,25.4508284 39.020611,27.3353683 36.9981545,28.0216067 C34.9763133,28.7081529 32.885857,27.9375964 32.330166,26.3001639" id="Fill-56" fill="#FFFFFF"></path>
                                    <path d="M24.2721245,27.0523488 C23.6607414,25.2512038 27.9428846,22.1689779 33.8367162,20.1678082 C39.7299323,18.167254 45.0034577,18.0047724 45.6151485,19.8062252 C46.2262239,21.6070625 41.9440807,24.6892884 36.0505568,26.6904581 C30.157033,28.69132 24.8835076,28.8534939 24.2721245,27.0523488" id="Fill-58" fill="#FFFFFF"></path>
                                    <path d="M38.4463047,20.2561268 C39.0023034,21.8932516 37.410615,22.5914915 35.3881585,23.2780376 C33.3657019,23.9648915 31.6780138,24.3800196 31.1223229,22.7428947 C30.5666319,21.1054622 31.7558598,19.22123 33.7783163,18.5346839 C35.8001574,17.8481378 37.8906138,18.619002 38.4463047,20.2561268" id="Fill-60" fill="#0D83DD"></path>
                                    <path d="M38.4463047,20.2561268 C39.0023034,21.8932516 37.410615,22.5914915 35.3881585,23.2780376 C33.3657019,23.9648915 31.6780138,24.3800196 31.1223229,22.7428947 C30.5666319,21.1054622 31.7558598,19.22123 33.7783163,18.5346839 C35.8001574,17.8481378 37.8906138,18.619002 38.4463047,20.2561268 L38.4463047,20.2561268 Z" id="Stroke-62" stroke="#FFFFFF" stroke-width="3.052"></path>
                                </g>
                            </g>
                            <path d="M180.423957,23.2047182 C180.955957,27.7127182 181.207957,30.9607182 181.207957,34.7127182 C181.207957,37.9327182 181.095957,42.1607182 179.191957,42.1607182 C178.099957,42.1607182 177.063957,40.7607182 176.839957,40.7607182 C176.223957,40.7607182 176.027957,41.1807182 176.027957,41.6567182 C176.027957,43.2247182 177.371957,44.1207182 179.107957,44.1207182 C183.475957,44.1207182 183.587957,36.7567182 183.587957,31.4927182 C183.587957,31.2407182 183.559957,31.2127182 183.559957,30.9607182 C183.559957,27.8247182 183.531957,22.1407182 181.963957,22.1407182 C181.123957,22.1407182 180.451957,22.3927182 180.395957,22.8687182 C180.395957,23.0367182 180.395957,23.1487182 180.423957,23.2047182 Z M190.139957,41.7967182 C187.955957,41.7967182 186.331957,39.7527182 186.331957,37.2327182 C186.331957,34.0687182 187.143957,30.9047182 190.923957,30.9047182 C193.611957,30.9047182 194.647957,33.3127182 194.647957,35.5807182 C194.647957,38.4087182 193.275957,41.7967182 190.139957,41.7967182 Z M190.307957,39.6407182 C192.239957,39.6407182 192.855957,37.1767182 192.855957,35.4127182 C192.855957,34.2647182 192.267957,33.0047182 191.119957,33.0047182 C188.823957,33.0047182 188.599957,35.3847182 188.599957,37.0087182 C188.599957,38.5207182 189.159957,39.6407182 190.307957,39.6407182 Z M200.583957,26.5087182 C200.583957,25.8367182 199.771957,25.1647182 199.099957,25.1647182 C198.343957,25.1647182 197.951957,26.0887182 197.951957,26.6207182 C197.951957,27.2087182 198.315957,27.9927182 199.099957,27.9927182 C199.771957,27.9927182 200.583957,27.4047182 200.583957,26.8167182 L200.583957,26.5087182 Z M199.659957,34.7127182 C199.659957,33.9287182 199.687957,33.5927182 199.715957,33.2567182 C199.743957,32.9487182 199.827957,32.6407182 199.827957,32.3607182 C199.827957,32.1647182 199.799957,31.9687182 199.771957,31.7727182 C199.687957,31.2127182 199.127957,31.0447182 198.343957,31.0447182 C197.335957,31.0447182 197.083957,32.3887182 197.083957,33.7887182 C197.083957,36.1687182 197.559957,41.1247182 198.987957,41.7687182 C199.351957,41.9367182 199.547957,42.0207182 199.855957,42.0207182 C200.303957,42.0207182 200.751957,41.7967182 200.751957,41.0967182 C200.751957,40.9847182 200.723957,40.9287182 200.639957,40.7887182 C200.443957,40.5367182 200.303957,40.3127182 200.191957,40.0047182 C199.715957,38.4927182 199.659957,36.7007182 199.659957,34.7127182 Z M206.043957,33.1727182 C206.127957,32.9767182 206.155957,32.8927182 206.155957,32.7807182 C206.155957,32.1367182 205.595957,31.3807182 204.783957,31.3807182 C203.579957,31.3807182 203.271957,32.8647182 203.271957,35.8607182 C203.271957,37.0087182 203.579957,39.7527182 204.307957,40.9287182 C204.643957,41.4607182 205.147957,41.4607182 205.651957,41.4607182 C206.323957,41.4607182 206.631957,40.2567182 207.051957,39.3887182 C207.555957,38.2967182 208.619957,35.1047182 209.459957,35.1047182 C209.767957,35.1047182 210.299957,35.5527182 210.551957,36.7847182 C210.887957,38.4927182 211.251957,40.4807182 212.679957,41.2087182 C213.071957,41.3767182 213.323957,41.4887182 213.687957,41.4887182 C214.247957,41.4887182 214.807957,41.2647182 214.807957,40.5367182 C214.807957,40.1727182 214.359957,39.9487182 214.107957,39.6687182 C212.231957,37.6247182 213.379957,32.2207182 210.579957,32.2207182 C209.179957,32.2207182 207.919957,33.7327182 206.743957,36.4487182 C206.379957,37.2887182 206.127957,38.2127182 206.015957,38.2127182 C205.819957,38.2127182 205.819957,37.9607182 205.763957,37.3447182 L205.763957,36.3087182 C205.763957,34.5447182 205.819957,33.7607182 206.043957,33.1727182 Z M226.203957,41.7967182 C224.019957,41.7967182 222.395957,39.7527182 222.395957,37.2327182 C222.395957,34.0687182 223.207957,30.9047182 226.987957,30.9047182 C229.675957,30.9047182 230.711957,33.3127182 230.711957,35.5807182 C230.711957,38.4087182 229.339957,41.7967182 226.203957,41.7967182 Z M226.371957,39.6407182 C228.303957,39.6407182 228.919957,37.1767182 228.919957,35.4127182 C228.919957,34.2647182 228.331957,33.0047182 227.183957,33.0047182 C224.887957,33.0047182 224.663957,35.3847182 224.663957,37.0087182 C224.663957,38.5207182 225.223957,39.6407182 226.371957,39.6407182 Z M237.935957,39.7247182 C236.675957,39.7247182 235.751957,36.4487182 235.639957,35.5527182 C235.639957,35.0207182 235.807957,34.1527182 235.807957,33.4247182 C235.807957,32.0807182 234.855957,31.4087182 233.791957,31.4087182 C232.895957,31.4087182 232.671957,32.0527182 232.671957,33.4807182 C232.671957,35.2167182 233.623957,37.6247182 233.875957,38.2407182 C234.687957,40.1167182 235.947957,41.8527182 237.403957,41.8527182 C240.147957,41.8527182 242.443957,36.6727182 242.583957,34.0687182 C242.611957,33.6487182 242.639957,33.2287182 242.639957,32.9207182 C242.639957,31.8567182 242.415957,31.3527182 241.547957,31.3527182 C240.959957,31.3527182 240.119957,31.6327182 240.063957,32.1647182 C240.063957,32.7527182 240.343957,33.1447182 240.343957,34.0687182 L240.343957,34.3207182 C240.259957,36.1127182 239.139957,39.7247182 237.935957,39.7247182 Z M249.891957,40.6767182 C250.871957,40.6767182 251.935957,40.1447182 252.747957,39.0527182 C253.027957,38.7167182 253.111957,38.4367182 253.475957,38.4367182 C253.895957,38.4367182 254.035957,38.9127182 254.035957,39.3047182 C254.035957,40.7327182 251.487957,42.2167182 249.331957,42.2167182 C245.971957,42.2167182 244.543957,39.3327182 244.543957,36.5607182 C244.543957,33.3967182 246.391957,30.7087182 249.583957,30.7087182 C250.871957,30.7087182 252.215957,31.6047182 252.215957,33.0887182 C252.215957,33.9287182 251.963957,34.7687182 251.515957,35.5247182 C250.675957,36.9527182 248.995957,38.0167182 247.371957,38.8007182 C247.903957,40.0607182 248.855957,40.6767182 249.891957,40.6767182 Z M250.227957,33.6767182 C250.227957,33.5087182 250.087957,32.7807182 249.247957,32.7807182 C247.343957,32.7807182 246.979957,35.2167182 246.979957,36.5047182 C246.979957,36.8407182 247.007957,37.1767182 247.035957,37.4567182 C249.191957,36.6167182 250.227957,35.0207182 250.227957,33.6767182 Z M261.959957,33.2007182 C262.407957,33.2287182 262.631957,33.3407182 262.799957,33.5087182 C262.827957,33.5367182 263.023957,33.7327182 263.107957,33.7327182 C263.695957,33.7327182 263.919957,32.9767182 263.919957,32.4167182 C263.891957,31.6607182 263.107957,31.0727182 262.351957,31.0167182 L262.071957,31.0167182 C260.923957,31.0167182 259.803957,31.6327182 259.047957,32.6127182 C258.879957,32.8647182 258.543957,33.3127182 258.039957,34.1807182 C257.927957,33.2287182 257.703957,31.5487182 256.359957,31.5487182 C255.995957,31.5487182 255.631957,31.8007182 255.435957,32.1087182 C255.407957,32.2487182 255.379957,32.4167182 255.379957,32.5287182 C255.491957,33.2847182 255.575957,33.8447182 255.687957,34.3767182 C255.939957,35.5527182 256.163957,36.8407182 256.247957,40.4527182 C256.247957,41.0967182 256.275957,41.7127182 256.975957,41.7967182 L257.227957,41.7967182 C258.067957,41.7967182 258.487957,41.2647182 258.487957,39.7247182 L258.487957,38.8007182 C258.487957,38.6327182 258.459957,38.4927182 258.459957,38.3247182 C258.459957,37.7087182 258.543957,37.0927182 258.711957,36.5327182 C259.075957,35.1327182 260.111957,33.2007182 261.763957,33.2007182 L261.959957,33.2007182 Z M275.063957,41.7407182 C274.979957,41.2927182 274.643957,38.4927182 274.587957,36.9527182 C274.531957,35.6927182 274.475957,34.4327182 274.475957,33.2847182 C274.475957,31.2687182 274.699957,28.6927182 275.035957,26.6487182 C275.063957,26.5647182 275.063957,26.4807182 275.063957,26.3127182 C275.035957,25.9487182 274.727957,25.7807182 274.223957,25.7807182 C274.027957,25.7807182 273.803957,25.8087182 273.551957,25.8647182 C272.067957,26.2007182 271.927957,27.6847182 271.927957,29.1687182 C271.927957,32.6967182 272.263957,37.3447182 272.851957,40.2847182 C272.963957,40.9007182 273.243957,42.5527182 274.307957,42.5527182 C274.811957,42.5527182 275.063957,42.5527182 275.063957,41.7407182 Z M288.559957,26.7327182 C288.139957,26.7327182 287.887957,27.6567182 287.887957,28.1607182 C287.915957,28.3567182 287.971957,28.4967182 288.139957,28.8327182 C288.895957,30.3167182 289.007957,32.2767182 289.007957,33.8727182 C289.007957,36.3647182 288.195957,40.5927182 285.227957,40.5927182 C282.007957,40.5927182 281.503957,35.4967182 281.503957,33.2287182 C281.503957,28.6087182 283.323957,27.2087182 284.863957,27.2087182 C285.759957,27.2087182 286.347957,27.8247182 286.571957,27.8247182 C286.963957,27.8247182 287.159957,27.5727182 287.159957,27.2087182 C287.159957,25.8927182 286.123957,25.3047182 284.863957,25.3047182 C280.355957,25.3047182 279.011957,30.0647182 279.011957,33.9287182 C279.011957,39.0247182 281.475957,42.4127182 284.891957,42.4127182 C289.679957,42.4127182 291.247957,37.0367182 291.247957,33.3687182 C291.247957,30.4287182 290.043957,26.7327182 288.559957,26.7327182 Z M300.207957,38.9127182 C300.487957,40.4807182 300.851957,41.4327182 301.355957,41.7407182 C301.747957,41.9647182 302.223957,42.0767182 302.503957,42.0767182 C303.343957,42.0767182 304.099957,40.8447182 304.743957,39.5287182 C304.939957,39.1087182 305.219957,38.5767182 305.555957,37.8207182 C306.115957,36.5607182 307.011957,34.9647182 307.459957,34.9647182 C307.823957,34.9647182 308.075957,35.8887182 308.327957,37.4567182 C308.523957,38.6327182 308.859957,40.3127182 309.363957,40.9007182 C309.531957,41.0967182 309.951957,41.2927182 310.427957,41.2927182 C311.071957,41.2927182 311.519957,40.3687182 311.911957,39.5287182 C312.471957,38.2967182 313.031957,37.0647182 313.731957,35.7767182 C313.899957,35.4407182 314.207957,34.9927182 314.375957,34.9927182 C314.571957,34.9927182 314.683957,35.4967182 314.711957,36.1687182 C314.795957,37.9607182 315.187957,40.3967182 316.727957,41.2087182 C317.091957,41.3767182 317.455957,41.4887182 317.791957,41.4887182 C318.295957,41.4887182 318.827957,41.2647182 318.827957,40.5367182 C318.827957,40.1727182 318.407957,39.9487182 318.183957,39.6967182 C317.175957,38.4647182 317.035957,36.5887182 317.035957,34.8807182 C317.035957,34.6847182 317.063957,34.4887182 317.063957,32.9207182 C317.063957,32.3607182 316.783957,31.6327182 315.691957,31.6327182 C315.047957,31.6327182 314.571957,32.0807182 314.179957,32.6407182 C313.451957,33.7047182 312.275957,35.9167182 311.687957,37.0647182 C311.379957,37.6527182 311.155957,38.0727182 310.875957,38.0727182 C310.707957,38.0727182 310.595957,37.5407182 310.539957,36.9247182 C310.511957,36.5607182 310.427957,36.2247182 310.315957,35.5807182 C310.203957,34.7967182 309.755957,31.7727182 308.411957,31.7727182 C307.375957,31.7727182 306.675957,32.4447182 305.947957,33.8447182 C305.303957,35.1047182 304.827957,36.3647182 304.127957,37.9327182 C303.819957,38.6327182 303.315957,39.5007182 303.063957,39.5007182 C302.419957,39.5007182 302.279957,36.4207182 302.279957,35.8607182 C302.279957,34.9367182 302.699957,33.6767182 302.951957,32.8367182 C303.091957,32.4167182 303.175957,32.1087182 303.175957,31.9967182 C303.175957,31.3247182 302.335957,30.8767182 301.523957,30.8767182 C300.291957,30.8767182 299.815957,32.8647182 299.815957,35.0207182 C299.815957,36.7007182 300.039957,38.3527182 300.207957,38.9127182 Z M324.567957,26.5087182 C324.567957,25.8367182 323.755957,25.1647182 323.083957,25.1647182 C322.327957,25.1647182 321.935957,26.0887182 321.935957,26.6207182 C321.935957,27.2087182 322.299957,27.9927182 323.083957,27.9927182 C323.755957,27.9927182 324.567957,27.4047182 324.567957,26.8167182 L324.567957,26.5087182 Z M323.643957,34.7127182 C323.643957,33.9287182 323.671957,33.5927182 323.699957,33.2567182 C323.727957,32.9487182 323.811957,32.6407182 323.811957,32.3607182 C323.811957,32.1647182 323.783957,31.9687182 323.755957,31.7727182 C323.671957,31.2127182 323.111957,31.0447182 322.327957,31.0447182 C321.319957,31.0447182 321.067957,32.3887182 321.067957,33.7887182 C321.067957,36.1687182 321.543957,41.1247182 322.971957,41.7687182 C323.335957,41.9367182 323.531957,42.0207182 323.839957,42.0207182 C324.287957,42.0207182 324.735957,41.7967182 324.735957,41.0967182 C324.735957,40.9847182 324.707957,40.9287182 324.623957,40.7887182 C324.427957,40.5367182 324.287957,40.3127182 324.175957,40.0047182 C323.699957,38.4927182 323.643957,36.7007182 323.643957,34.7127182 Z M330.755957,40.7047182 C329.971957,39.2767182 329.831957,36.6727182 329.775957,34.7687182 C329.747957,34.2927182 329.747957,33.8167182 329.747957,33.3407182 C329.747957,30.7367182 330.111957,27.3487182 330.559957,24.4367182 C330.587957,24.3807182 330.587957,24.1847182 330.587957,24.1007182 C330.559957,23.6247182 329.775957,23.2607182 329.047957,23.2607182 C327.787957,23.2607182 327.591957,25.1367182 327.507957,26.6487182 C327.423957,27.7687182 327.311957,29.8407182 327.311957,31.6887182 C327.311957,34.3207182 327.395957,38.8287182 328.515957,41.1807182 C328.767957,41.7127182 329.383957,42.1327182 329.887957,42.1327182 C330.447957,42.1327182 330.979957,41.9087182 331.007957,41.4607182 C331.007957,41.0687182 330.811957,40.8167182 330.755957,40.7047182 Z M337.027957,40.4807182 C336.383957,39.1647182 336.327957,36.5327182 336.215957,34.6007182 L336.215957,34.3207182 C336.215957,33.7047182 336.187957,33.1447182 336.187957,32.5847182 C336.187957,30.1487182 336.495957,27.6007182 336.887957,24.8007182 C336.915957,24.7447182 336.915957,24.5487182 336.915957,24.4647182 C336.859957,24.0447182 336.243957,23.6247182 335.599957,23.6247182 C334.535957,23.6247182 334.115957,25.5567182 333.919957,27.4047182 C333.807957,28.6087182 333.723957,29.7007182 333.723957,31.7727182 C333.723957,34.8247182 333.835957,41.9647182 336.047957,41.9647182 C336.607957,41.9647182 337.307957,41.6847182 337.307957,41.2367182 C337.307957,40.8447182 337.083957,40.5927182 337.027957,40.4807182 Z M342.431957,34.7127182 C342.459957,34.0127182 342.627957,33.1727182 342.627957,32.4167182 C342.627957,31.7447182 342.291957,31.1007182 341.479957,30.9607182 C341.395957,30.9607182 341.115957,30.9047182 341.059957,30.9047182 C339.995957,30.9047182 339.827957,32.7527182 339.827957,34.0407182 L339.827957,34.9367182 C339.855957,36.7287182 340.107957,39.1367182 340.611957,40.5927182 C340.919957,41.4047182 341.675957,42.0207182 342.403957,42.0207182 C342.851957,42.0207182 343.299957,41.7687182 343.327957,41.0687182 C343.327957,40.9567182 343.299957,40.9007182 343.215957,40.7607182 C343.019957,40.5367182 342.879957,40.3127182 342.795957,40.0327182 C342.487957,38.8567182 342.375957,37.7087182 342.375957,36.5047182 C342.375957,35.9447182 342.403957,35.3287182 342.431957,34.7127182 Z M343.635957,25.7807182 C343.635957,25.1647182 342.907957,24.6047182 342.263957,24.6047182 L342.151957,24.6047182 C341.451957,24.6887182 340.947957,25.5567182 340.947957,26.2847182 C340.947957,26.8167182 341.227957,27.4607182 341.899957,27.4607182 L342.179957,27.4607182 C342.851957,27.4047182 343.579957,26.7047182 343.635957,26.1167182 L343.635957,25.7807182 Z M349.711957,41.7967182 C347.527957,41.7967182 345.903957,39.7527182 345.903957,37.2327182 C345.903957,34.0687182 346.715957,30.9047182 350.495957,30.9047182 C353.183957,30.9047182 354.219957,33.3127182 354.219957,35.5807182 C354.219957,38.4087182 352.847957,41.7967182 349.711957,41.7967182 Z M349.879957,39.6407182 C351.811957,39.6407182 352.427957,37.1767182 352.427957,35.4127182 C352.427957,34.2647182 351.839957,33.0047182 350.691957,33.0047182 C348.395957,33.0047182 348.171957,35.3847182 348.171957,37.0087182 C348.171957,38.5207182 348.731957,39.6407182 349.879957,39.6407182 Z M359.427957,33.1727182 C359.511957,32.9767182 359.539957,32.8927182 359.539957,32.7807182 C359.539957,32.1367182 358.979957,31.3807182 358.167957,31.3807182 C356.963957,31.3807182 356.655957,32.8647182 356.655957,35.8607182 C356.655957,37.0087182 356.963957,39.7527182 357.691957,40.9287182 C358.027957,41.4607182 358.531957,41.4607182 359.035957,41.4607182 C359.707957,41.4607182 360.015957,40.2567182 360.435957,39.3887182 C360.939957,38.2967182 362.003957,35.1047182 362.843957,35.1047182 C363.151957,35.1047182 363.683957,35.5527182 363.935957,36.7847182 C364.271957,38.4927182 364.635957,40.4807182 366.063957,41.2087182 C366.455957,41.3767182 366.707957,41.4887182 367.071957,41.4887182 C367.631957,41.4887182 368.191957,41.2647182 368.191957,40.5367182 C368.191957,40.1727182 367.743957,39.9487182 367.491957,39.6687182 C365.615957,37.6247182 366.763957,32.2207182 363.963957,32.2207182 C362.563957,32.2207182 361.303957,33.7327182 360.127957,36.4487182 C359.763957,37.2887182 359.511957,38.2127182 359.399957,38.2127182 C359.203957,38.2127182 359.203957,37.9607182 359.147957,37.3447182 L359.147957,36.3087182 C359.147957,34.5447182 359.203957,33.7607182 359.427957,33.1727182 Z M156.903957,80.9927182 C156.679957,81.0767182 156.343957,81.0767182 156.287957,81.0767182 C155.951957,81.0767182 155.755957,80.5167182 155.643957,79.8167182 C155.223957,76.7087182 155.055957,73.2367182 155.055957,70.0447182 C155.055957,68.6167182 155.055957,66.9927182 155.195957,65.5647182 C155.363957,63.9127182 155.615957,61.8687182 156.735957,61.8687182 C157.435957,61.8687182 158.135957,62.1207182 158.135957,62.6527182 C158.135957,62.7087182 158.135957,62.7647182 158.107957,62.8487182 C158.023957,63.2407182 157.967957,63.6327182 157.911957,64.0247182 C159.059957,63.3807182 160.207957,63.1847182 161.299957,63.1847182 C163.119957,63.1847182 164.631957,64.2487182 164.631957,66.1807182 C164.631957,70.2127182 160.991957,73.3487182 157.295957,73.3487182 L157.295957,74.3287182 C157.295957,76.4567182 157.547957,78.2207182 157.547957,79.9847182 C157.547957,80.6007182 157.323957,80.8247182 156.903957,80.9927182 Z M162.027957,66.6567182 C162.027957,65.6767182 161.411957,64.8927182 160.543957,64.8927182 C159.563957,64.8927182 158.555957,65.2007182 157.659957,65.7607182 C157.407957,67.9167182 157.295957,70.0167182 157.239957,71.8927182 C160.095957,71.3607182 162.027957,69.5967182 162.027957,66.6567182 Z M171.603957,72.6767182 C172.583957,72.6767182 173.647957,72.1447182 174.459957,71.0527182 C174.739957,70.7167182 174.823957,70.4367182 175.187957,70.4367182 C175.607957,70.4367182 175.747957,70.9127182 175.747957,71.3047182 C175.747957,72.7327182 173.199957,74.2167182 171.043957,74.2167182 C167.683957,74.2167182 166.255957,71.3327182 166.255957,68.5607182 C166.255957,65.3967182 168.103957,62.7087182 171.295957,62.7087182 C172.583957,62.7087182 173.927957,63.6047182 173.927957,65.0887182 C173.927957,65.9287182 173.675957,66.7687182 173.227957,67.5247182 C172.387957,68.9527182 170.707957,70.0167182 169.083957,70.8007182 C169.615957,72.0607182 170.567957,72.6767182 171.603957,72.6767182 Z M171.939957,65.6767182 C171.939957,65.5087182 171.799957,64.7807182 170.959957,64.7807182 C169.055957,64.7807182 168.691957,67.2167182 168.691957,68.5047182 C168.691957,68.8407182 168.719957,69.1767182 168.747957,69.4567182 C170.903957,68.6167182 171.939957,67.0207182 171.939957,65.6767182 Z M180.759957,73.7967182 C178.575957,73.7967182 176.951957,71.7527182 176.951957,69.2327182 C176.951957,66.0687182 177.763957,62.9047182 181.543957,62.9047182 C184.231957,62.9047182 185.267957,65.3127182 185.267957,67.5807182 C185.267957,70.4087182 183.895957,73.7967182 180.759957,73.7967182 Z M180.927957,71.6407182 C182.859957,71.6407182 183.475957,69.1767182 183.475957,67.4127182 C183.475957,66.2647182 182.887957,65.0047182 181.739957,65.0047182 C179.443957,65.0047182 179.219957,67.3847182 179.219957,69.0087182 C179.219957,70.5207182 179.779957,71.6407182 180.927957,71.6407182 Z M189.971957,69.3167182 C189.999957,68.3927182 190.083957,67.3567182 190.167957,66.3487182 C191.007957,65.7887182 192.211957,65.3967182 193.219957,65.3967182 C194.171957,65.3967182 194.759957,66.1527182 194.759957,67.2167182 C194.759957,69.7367182 192.659957,71.2487182 190.615957,72.3127182 C190.587957,72.4247182 190.587957,72.4527182 190.587957,72.5367182 C190.587957,72.9847182 190.699957,73.2647182 191.231957,73.2647182 C194.311957,73.2647182 197.251957,69.8207182 197.251957,67.0487182 C197.251957,64.6687182 196.047957,63.3527182 193.723957,63.3527182 L193.583957,63.3527182 C192.491957,63.3807182 191.371957,63.8287182 190.363957,64.4167182 L190.419957,63.7167182 L190.419957,63.4087182 C190.419957,62.0367182 189.691957,61.9527182 189.047957,61.9527182 C188.151957,61.9527182 187.955957,62.7927182 187.899957,63.4087182 C187.647957,66.6287182 187.647957,68.3367182 187.647957,70.8007182 C187.647957,73.2367182 187.927957,77.5487182 188.375957,79.6487182 C188.543957,80.4887182 188.795957,80.9647182 189.327957,80.9647182 C189.803957,80.9647182 190.251957,80.6007182 190.251957,80.2927182 C190.251957,79.1447182 189.887957,75.2807182 189.887957,73.0687182 C189.887957,71.8087182 189.915957,70.5487182 189.971957,69.3167182 Z M202.711957,72.7047182 C201.927957,71.2767182 201.787957,68.6727182 201.731957,66.7687182 C201.703957,66.2927182 201.703957,65.8167182 201.703957,65.3407182 C201.703957,62.7367182 202.067957,59.3487182 202.515957,56.4367182 C202.543957,56.3807182 202.543957,56.1847182 202.543957,56.1007182 C202.515957,55.6247182 201.731957,55.2607182 201.003957,55.2607182 C199.743957,55.2607182 199.547957,57.1367182 199.463957,58.6487182 C199.379957,59.7687182 199.267957,61.8407182 199.267957,63.6887182 C199.267957,66.3207182 199.351957,70.8287182 200.471957,73.1807182 C200.723957,73.7127182 201.339957,74.1327182 201.843957,74.1327182 C202.403957,74.1327182 202.935957,73.9087182 202.963957,73.4607182 C202.963957,73.0687182 202.767957,72.8167182 202.711957,72.7047182 Z M210.411957,72.3127182 C212.399957,72.3127182 213.771957,70.0727182 213.743957,70.1007182 C214.191957,70.1007182 214.443957,70.5207182 214.443957,70.9967182 C214.443957,72.8727182 211.503957,73.8807182 209.795957,73.8807182 C206.603957,73.8807182 205.175957,70.9127182 205.175957,68.2527182 C205.175957,65.2287182 206.855957,62.6527182 209.879957,62.6527182 C211.475957,62.6527182 212.287957,63.7167182 212.287957,64.9487182 C212.287957,67.2167182 210.215957,69.2327182 208.087957,70.7727182 C208.535957,71.7527182 209.319957,72.3127182 210.411957,72.3127182 Z M210.355957,65.3687182 C210.355957,65.1727182 210.215957,64.7527182 209.655957,64.7527182 C207.835957,64.7527182 207.639957,67.1607182 207.639957,68.3927182 C207.639957,68.7847182 207.639957,69.1487182 207.695957,69.4847182 C209.571957,67.9727182 210.355957,66.6287182 210.355957,65.3687182 Z M229.395957,68.1967182 C229.507957,71.2207182 230.431957,72.9847182 231.495957,73.6847182 C231.579957,73.7687182 231.719957,73.7967182 231.887957,73.7967182 C232.335957,73.7967182 232.811957,73.4327182 232.811957,72.9287182 C232.811957,72.8447182 232.699957,72.5367182 232.587957,72.2847182 C232.195957,71.4447182 231.971957,70.5207182 231.831957,69.4847182 C231.663957,68.2807182 231.663957,66.9087182 231.663957,65.8447182 L231.663957,65.0327182 C231.663957,63.9127182 230.655957,63.9127182 230.179957,63.9127182 C229.675957,63.9127182 229.283957,64.0527182 229.087957,65.5927182 C228.023957,68.6727182 226.819957,71.3327182 225.615957,71.3327182 C224.495957,71.3327182 224.131957,69.7367182 224.131957,68.5607182 C224.131957,67.2447182 224.467957,65.9847182 224.467957,64.5287182 C224.467957,63.8847182 224.299957,63.4927182 223.851957,63.4927182 C223.711957,63.4927182 223.487957,63.5207182 223.207957,63.6047182 C221.779957,63.9687182 221.611957,65.4247182 221.611957,66.8247182 C221.611957,67.2167182 221.611957,67.8607182 221.639957,68.1967182 C221.779957,70.1567182 222.283957,73.6847182 224.943957,73.6847182 C226.735957,73.6847182 228.051957,72.1167182 229.395957,68.1967182 Z M239.671957,70.6607182 C239.671957,72.0887182 237.179957,72.6487182 236.003957,72.6487182 C235.779957,72.6487182 235.583957,72.5927182 235.303957,72.5927182 C235.023957,72.5927182 234.911957,72.8727182 234.911957,73.1807182 C234.911957,73.9927182 235.835957,74.1607182 236.591957,74.1607182 C238.411957,74.1607182 242.275957,73.0407182 242.275957,70.6887182 C242.275957,69.8207182 241.827957,69.1767182 240.959957,68.6167182 C240.287957,68.1967182 237.515957,66.9647182 237.515957,65.9847182 C237.515957,64.2207182 241.491957,64.5567182 241.491957,63.6327182 C241.491957,63.0167182 241.127957,62.2887182 240.091957,62.2887182 C237.879957,62.4287182 235.247957,63.5767182 235.247957,65.9287182 L235.247957,66.0687182 C235.359957,68.7847182 239.671957,69.4007182 239.671957,70.6607182 Z M247.987957,58.5087182 C247.987957,57.8367182 247.175957,57.1647182 246.503957,57.1647182 C245.747957,57.1647182 245.355957,58.0887182 245.355957,58.6207182 C245.355957,59.2087182 245.719957,59.9927182 246.503957,59.9927182 C247.175957,59.9927182 247.987957,59.4047182 247.987957,58.8167182 L247.987957,58.5087182 Z M247.063957,66.7127182 C247.063957,65.9287182 247.091957,65.5927182 247.119957,65.2567182 C247.147957,64.9487182 247.231957,64.6407182 247.231957,64.3607182 C247.231957,64.1647182 247.203957,63.9687182 247.175957,63.7727182 C247.091957,63.2127182 246.531957,63.0447182 245.747957,63.0447182 C244.739957,63.0447182 244.487957,64.3887182 244.487957,65.7887182 C244.487957,68.1687182 244.963957,73.1247182 246.391957,73.7687182 C246.755957,73.9367182 246.951957,74.0207182 247.259957,74.0207182 C247.707957,74.0207182 248.155957,73.7967182 248.155957,73.0967182 C248.155957,72.9847182 248.127957,72.9287182 248.043957,72.7887182 C247.847957,72.5367182 247.707957,72.3127182 247.595957,72.0047182 C247.119957,70.4927182 247.063957,68.7007182 247.063957,66.7127182 Z M258.543957,69.4287182 C258.739957,70.9407182 259.243957,72.8167182 260.419957,73.4327182 C260.783957,73.6007182 261.147957,73.7127182 261.483957,73.7127182 C261.959957,73.7127182 262.491957,73.4887182 262.491957,72.7887182 C262.491957,72.4247182 262.071957,72.2007182 261.847957,71.9487182 C261.427957,71.4167182 261.147957,70.5487182 260.979957,69.8207182 C260.671957,68.3927182 260.615957,67.1327182 260.139957,65.8167182 C259.747957,64.6407182 259.131957,64.1647182 258.403957,64.1647182 C255.799957,64.1647182 253.923957,68.5327182 253.111957,70.4647182 C253.027957,70.0727182 253.027957,69.5967182 253.027957,69.0927182 C253.027957,67.7487182 253.223957,66.6007182 253.307957,66.3487182 C253.783957,64.9207182 253.839957,64.8087182 253.867957,64.7247182 C253.951957,64.5287182 253.979957,64.4447182 253.979957,64.3327182 C253.979957,63.6887182 253.223957,62.9327182 252.411957,62.9327182 C251.207957,62.9327182 250.675957,64.9767182 250.675957,67.9727182 C250.675957,69.3167182 250.815957,72.7887182 251.879957,73.4607182 C252.187957,73.6287182 252.355957,73.7407182 252.635957,73.7687182 C252.775957,73.7687182 252.915957,73.7967182 253.083957,73.7967182 C253.391957,73.7967182 253.783957,73.4887182 253.783957,73.0127182 C253.783957,72.7047182 253.923957,71.9207182 254.063957,71.5847182 L254.259957,71.1087182 C254.707957,70.1007182 256.191957,67.0487182 257.227957,67.0487182 C257.815957,67.0487182 258.319957,67.9447182 258.543957,69.4287182 Z M270.919957,68.1407182 C269.659957,70.1847182 269.239957,70.8007182 267.923957,70.8007182 C267.055957,70.8007182 266.551957,70.0727182 266.467957,68.5327182 L266.467957,68.3367182 C266.467957,66.5167182 267.559957,64.8087182 268.707957,64.8087182 C269.295957,64.8087182 269.855957,65.2847182 270.275957,66.4327182 C270.471957,66.9367182 270.639957,67.0767182 270.947957,67.0767182 C271.815957,67.0767182 272.207957,66.4607182 272.207957,65.9847182 C272.207957,64.5007182 270.191957,63.1007182 268.651957,63.1007182 C266.411957,63.1007182 264.031957,64.9767182 264.031957,68.3647182 C264.031957,71.4727182 265.683957,72.9287182 267.335957,72.9287182 C268.539957,72.9287182 269.771957,72.2567182 270.611957,70.6887182 L270.611957,70.8567182 C270.611957,72.6767182 270.723957,73.9927182 270.723957,75.2807182 C270.723957,77.4647182 270.415957,79.5927182 269.267957,79.5927182 C267.699957,79.5927182 266.775957,78.0527182 266.047957,78.0527182 C265.711957,78.0527182 265.487957,78.5007182 265.487957,79.0607182 C265.487957,80.6007182 268.399957,81.5527182 269.491957,81.5527182 C272.347957,81.5527182 272.795957,77.2967182 272.795957,74.0767182 C272.795957,73.2367182 272.767957,72.4807182 272.739957,71.8647182 C272.711957,71.6407182 272.711957,71.4167182 272.711957,71.2487182 L272.571957,68.7287182 C272.571957,68.6167182 272.347957,67.7487182 271.731957,67.7487182 C271.507957,67.7487182 271.143957,67.7767182 270.919957,68.1407182 Z M299.591957,65.3127182 C300.039957,65.3127182 300.263957,65.4807182 300.431957,65.6207182 C300.571957,65.7327182 300.683957,65.8167182 300.683957,65.8167182 C301.271957,65.8167182 301.579957,65.0607182 301.579957,64.4727182 C301.579957,63.6607182 300.795957,63.1847182 300.011957,63.1847182 C298.331957,63.1847182 296.679957,64.5287182 295.671957,66.8807182 C295.055957,64.6687182 293.571957,63.7727182 291.807957,63.7727182 C290.239957,63.7727182 288.139957,64.3887182 286.291957,65.0327182 C286.347957,63.1847182 286.487957,60.9447182 286.739957,59.3207182 C286.767957,59.2647182 286.767957,59.1807182 286.767957,59.0687182 C286.711957,58.5927182 286.151957,58.3407182 285.395957,58.3407182 C283.799957,58.3407182 283.799957,61.2247182 283.799957,62.5687182 C283.799957,63.5487182 283.827957,64.7247182 283.883957,65.9007182 L282.819957,66.2927182 C281.727957,66.6847182 281.503957,67.0207182 281.503957,68.4767182 C281.503957,68.6447182 281.587957,68.7007182 281.699957,68.7007182 C281.867957,68.7007182 282.119957,68.5887182 282.259957,68.5327182 L283.995957,67.5527182 C284.219957,70.5207182 284.527957,73.3767182 284.723957,73.9927182 C284.891957,74.4967182 285.087957,74.9167182 285.395957,74.9167182 C286.123957,74.9167182 286.319957,74.2727182 286.319957,73.7967182 C286.319957,72.9287182 286.291957,72.3967182 286.291957,71.8647182 L286.291957,68.6167182 C286.291957,67.9727182 286.263957,67.3007182 286.263957,66.6847182 L286.263957,66.5447182 C287.915957,65.8447182 289.483957,65.3127182 291.079957,65.3127182 C292.339957,65.3127182 293.151957,65.6767182 293.487957,68.2807182 C293.599957,69.1767182 293.767957,70.4647182 293.767957,72.7607182 L293.767957,72.9567182 C293.767957,73.7687182 293.795957,74.3007182 294.439957,74.3007182 C295.475957,74.3007182 296.091957,73.8527182 296.091957,72.0887182 L296.091957,71.3047182 C296.091957,70.5207182 296.175957,69.7367182 296.371957,69.0087182 C296.791957,67.5247182 297.827957,65.3127182 299.591957,65.3127182 Z M292.423957,53.6087182 C286.179957,53.6087182 282.231957,55.3167182 281.083957,55.9607182 C280.831957,56.1007182 280.719957,56.2407182 280.663957,56.6327182 C280.663957,57.1087182 280.831957,57.5567182 281.139957,57.5847182 C281.503957,57.5847182 282.147957,57.4727182 282.511957,57.3047182 C284.023957,56.6327182 288.895957,56.1287182 290.491957,56.1287182 C294.439957,56.1287182 296.315957,56.6887182 296.315957,56.6887182 C296.679957,56.6887182 296.959957,55.7087182 296.959957,55.0367182 C296.959957,54.4767182 296.595957,54.2247182 296.175957,54.0567182 C295.363957,53.7487182 293.515957,53.6087182 292.423957,53.6087182 Z M307.571957,72.6767182 C308.551957,72.6767182 309.615957,72.1447182 310.427957,71.0527182 C310.707957,70.7167182 310.791957,70.4367182 311.155957,70.4367182 C311.575957,70.4367182 311.715957,70.9127182 311.715957,71.3047182 C311.715957,72.7327182 309.167957,74.2167182 307.011957,74.2167182 C303.651957,74.2167182 302.223957,71.3327182 302.223957,68.5607182 C302.223957,65.3967182 304.071957,62.7087182 307.263957,62.7087182 C308.551957,62.7087182 309.895957,63.6047182 309.895957,65.0887182 C309.895957,65.9287182 309.643957,66.7687182 309.195957,67.5247182 C308.355957,68.9527182 306.675957,70.0167182 305.051957,70.8007182 C305.583957,72.0607182 306.535957,72.6767182 307.571957,72.6767182 Z M307.907957,65.6767182 C307.907957,65.5087182 307.767957,64.7807182 306.927957,64.7807182 C305.023957,64.7807182 304.659957,67.2167182 304.659957,68.5047182 C304.659957,68.8407182 304.687957,69.1767182 304.715957,69.4567182 C306.871957,68.6167182 307.907957,67.0207182 307.907957,65.6767182 Z M317.679957,70.6607182 C317.679957,72.0887182 315.187957,72.6487182 314.011957,72.6487182 C313.787957,72.6487182 313.591957,72.5927182 313.311957,72.5927182 C313.031957,72.5927182 312.919957,72.8727182 312.919957,73.1807182 C312.919957,73.9927182 313.843957,74.1607182 314.599957,74.1607182 C316.419957,74.1607182 320.283957,73.0407182 320.283957,70.6887182 C320.283957,69.8207182 319.835957,69.1767182 318.967957,68.6167182 C318.295957,68.1967182 315.523957,66.9647182 315.523957,65.9847182 C315.523957,64.2207182 319.499957,64.5567182 319.499957,63.6327182 C319.499957,63.0167182 319.135957,62.2887182 318.099957,62.2887182 C315.887957,62.4287182 313.255957,63.5767182 313.255957,65.9287182 L313.255957,66.0687182 C313.367957,68.7847182 317.679957,69.4007182 317.679957,70.6607182 Z M332.799957,74.0487182 C332.939957,74.1047182 333.023957,74.1047182 333.135957,74.1047182 C333.583957,74.1047182 334.059957,73.7967182 334.059957,73.2087182 C334.059957,73.1527182 333.947957,72.8727182 333.835957,72.6207182 C333.667957,72.2567182 333.471957,71.6967182 333.303957,71.0807182 C333.135957,70.4367182 333.051957,69.4567182 332.827957,67.3287182 C332.687957,65.8167182 332.267957,63.9127182 330.503957,63.9127182 C329.215957,63.9127182 328.151957,64.7527182 327.479957,65.7047182 C326.583957,66.9367182 326.079957,68.6167182 325.155957,70.7447182 C325.099957,70.9407182 325.015957,71.1087182 324.931957,71.1087182 C324.875957,71.1087182 324.847957,71.0247182 324.819957,70.8847182 C324.679957,69.9047182 324.623957,67.2447182 324.623957,66.0407182 C324.623957,63.2687182 324.875957,60.2167182 325.155957,57.9767182 C325.183957,57.7807182 325.183957,57.5847182 325.183957,57.3887182 C325.183957,56.3247182 324.763957,55.6247182 323.223957,55.6247182 C322.775957,55.6247182 322.607957,57.0527182 322.523957,58.5087182 C322.439957,60.2447182 322.355957,61.9527182 322.355957,63.7447182 C322.355957,66.7407182 322.411957,69.9607182 323.167957,72.9847182 C323.307957,73.5727182 323.755957,73.9927182 324.147957,73.9927182 C325.015957,73.9927182 325.603957,73.0127182 325.995957,72.2567182 C327.675957,68.9247182 327.983957,67.8047182 328.543957,67.1047182 C328.823957,66.7687182 329.131957,66.4047182 329.383957,66.4047182 C329.943957,66.4047182 330.223957,66.8807182 330.307957,67.2447182 L330.783957,70.1567182 C331.147957,71.7807182 331.539957,73.4887182 332.799957,74.0487182 Z M337.643957,73.1807182 C336.943957,72.9287182 337.027957,72.7327182 336.579957,72.7327182 C336.271957,72.7327182 335.991957,73.2367182 335.991957,73.7687182 C335.991957,74.7487182 337.111957,74.9167182 338.063957,74.9167182 C342.851957,74.9167182 349.627957,73.4607182 349.627957,67.8047182 C349.627957,64.7247182 346.463957,63.7447182 343.971957,63.7447182 C343.719957,63.7447182 343.439957,63.7447182 343.187957,63.7727182 C345.623957,63.0727182 347.807957,59.8527182 347.807957,57.9207182 C347.807957,55.2887182 344.839957,54.7567182 342.683957,54.7567182 C340.919957,54.7567182 339.351957,55.0927182 337.755957,55.4847182 C335.011957,56.1847182 334.451957,57.0527182 334.339957,57.8367182 C334.339957,58.2287182 334.507957,58.5647182 334.843957,58.6767182 C335.571957,58.1727182 336.663957,57.6687182 337.671957,57.3607182 C339.267957,56.7727182 340.359957,56.7167182 341.899957,56.7167182 C343.495957,56.7167182 345.119957,56.8847182 345.175957,58.7047182 C344.951957,61.0847182 343.047957,62.5407182 341.675957,63.3807182 C341.283957,63.6607182 340.807957,63.7727182 340.415957,63.8567182 C340.583957,60.5807182 341.255957,58.6767182 341.255957,58.4527182 C341.255957,58.1447182 340.639957,57.8647182 339.911957,57.8647182 C338.511957,57.8647182 338.203957,59.8527182 338.203957,62.0927182 C338.203957,62.6247182 338.203957,63.1567182 338.231957,63.6887182 C338.343957,66.3487182 338.567957,69.0367182 338.987957,70.9967182 C339.183957,71.8927182 339.603957,72.7887182 340.415957,72.7887182 C340.919957,72.7887182 341.003957,72.6207182 341.003957,72.4807182 C341.003957,72.3967182 340.975957,72.3127182 340.975957,72.3127182 C340.947957,71.8087182 340.863957,70.9407182 340.835957,70.6607182 C340.695957,69.3447182 340.471957,68.0007182 340.415957,66.7687182 C340.387957,66.2927182 340.387957,65.8447182 340.387957,65.4247182 C340.527957,65.4807182 340.667957,65.5367182 340.835957,65.5367182 C341.199957,65.5367182 342.235957,65.2007182 342.739957,65.2007182 C345.287957,65.2007182 346.911957,65.6767182 347.079957,67.8887182 C347.079957,72.3687182 342.179957,73.2927182 338.595957,73.2927182 C338.203957,73.2927182 337.867957,73.2647182 337.643957,73.1807182 Z M355.591957,73.7967182 C353.407957,73.7967182 351.783957,71.7527182 351.783957,69.2327182 C351.783957,66.0687182 352.595957,62.9047182 356.375957,62.9047182 C359.063957,62.9047182 360.099957,65.3127182 360.099957,67.5807182 C360.099957,70.4087182 358.727957,73.7967182 355.591957,73.7967182 Z M355.759957,71.6407182 C357.691957,71.6407182 358.307957,69.1767182 358.307957,67.4127182 C358.307957,66.2647182 357.719957,65.0047182 356.571957,65.0047182 C354.275957,65.0047182 354.051957,67.3847182 354.051957,69.0087182 C354.051957,70.5207182 354.611957,71.6407182 355.759957,71.6407182 Z M366.231957,73.8247182 C363.683957,73.8247182 362.311957,71.6967182 362.311957,68.8127182 C362.311957,65.7607182 363.627957,63.1007182 366.903957,63.1007182 C369.647957,63.1007182 370.739957,65.5647182 370.739957,67.8047182 C370.739957,70.4927182 369.143957,73.6847182 366.231957,73.8247182 Z M366.483957,71.8367182 C368.471957,71.8367182 368.975957,69.2607182 368.975957,67.4687182 C368.975957,66.2927182 368.443957,65.2007182 367.071957,65.2007182 C364.943957,65.2007182 364.747957,67.7487182 364.747957,69.2607182 C364.747957,70.8007182 365.307957,71.8367182 366.483957,71.8367182 Z M375.807957,58.0047182 C375.863957,57.4447182 375.919957,57.2487182 375.919957,57.1087182 C375.919957,56.2967182 374.855957,55.8207182 374.351957,55.8207182 C373.763957,55.8207182 373.539957,56.2687182 373.483957,56.8287182 C373.203957,59.7127182 373.119957,62.0927182 373.119957,64.7247182 C373.119957,67.4127182 373.287957,69.5967182 373.483957,72.0607182 C373.567957,73.0687182 373.763957,74.1607182 375.079957,74.1607182 C375.499957,74.1607182 375.639957,73.9087182 375.639957,73.1807182 C375.639957,72.8727182 375.499957,71.7247182 375.359957,70.4367182 L376.283957,69.3447182 C377.879957,71.6967182 379.839957,73.8807182 381.799957,73.8807182 C382.275957,73.8807182 383.115957,73.5447182 383.115957,72.7047182 C383.115957,72.5927182 383.059957,72.4807182 382.919957,72.4247182 C380.903957,71.4727182 379.027957,69.6247182 377.683957,67.7487182 C378.579957,66.8527182 379.559957,66.0967182 380.735957,65.3687182 C381.519957,64.8647182 382.135957,64.8647182 382.135957,64.4727182 C382.135957,63.3807182 381.519957,62.9047182 380.819957,62.9047182 C380.427957,62.9047182 379.979957,63.1287182 379.615957,63.3247182 C378.439957,64.0247182 376.955957,65.4807182 375.191957,68.2527182 C375.163957,67.8607182 375.163957,67.4687182 375.163957,67.1047182 C375.163957,63.9687182 375.331957,60.8887182 375.807957,58.0047182 Z M384.711957,72.4247182 C384.263957,72.4247182 384.095957,72.6487182 384.095957,72.9007182 C384.095957,73.3487182 384.543957,74.0207182 385.187957,74.1327182 C385.439957,74.1887182 386.111957,74.2167182 386.587957,74.2167182 L386.867957,74.2167182 C388.603957,74.1327182 391.571957,73.2087182 391.655957,71.2767182 L391.655957,71.1367182 C391.655957,69.7927182 390.451957,69.1767182 389.135957,68.1687182 C388.211957,67.4407182 387.091957,66.7687182 387.091957,65.8727182 C387.091957,64.0527182 390.619957,64.7807182 390.815957,63.7167182 C390.843957,63.5207182 390.871957,63.3527182 390.871957,63.2127182 C390.871957,62.6527182 390.591957,62.4287182 389.807957,62.3727182 L389.471957,62.3727182 C387.707957,62.3727182 384.767957,63.2967182 384.627957,65.7047182 L384.627957,65.8727182 C384.627957,68.5887182 389.079957,69.7647182 389.079957,71.0807182 C389.079957,72.2847182 387.679957,72.5367182 386.391957,72.5367182 C385.803957,72.5367182 385.355957,72.4247182 384.963957,72.4247182 L384.711957,72.4247182 Z" id="Join-over-10-million" fill="#FFFFFF" transform="translate(273.355957, 51.846718) rotate(-4.000000) translate(-273.355957, -51.846718) "></path>
                        </g>
                    </g>
                </g>
            </g>
        </g>
    </g>
</svg>